<svg xmlns="http://www.w3.org/2000/svg" width="158" height="158" viewBox="0 0 158 158">
  <g id="Group_1" data-name="Group 1" transform="translate(-271 -471)">
    <rect id="Rectangle_1" data-name="Rectangle 1" width="158" height="158" transform="translate(271 471)" fill="#0f151c"/>
    <path id="Path_1" data-name="Path 1" d="M38.016-49.464v19.44H15.48v-19.44H4.9V0H15.48V-20.448H38.016V0H48.6V-49.464ZM58.824,0H84.816c9.432,0,16.2-5.472,16.2-13.392,0-5.472-3.312-10.08-9.072-12.672,4.392-2.3,6.912-5.976,6.912-11.016,0-7.2-6.12-12.384-14.976-12.384H58.824ZM69.408-29.52V-40.392H81.216c3.96,0,6.768,2.3,6.768,5.4,0,3.168-2.808,5.472-6.768,5.472Zm0,20.448v-12.1H82.872c4.248,0,7.272,2.52,7.272,6.048S87.12-9.072,82.872-9.072Z" transform="translate(298 574)" fill="#fff"/>
  </g>
</svg>
