<?xml version="1.0" encoding="UTF-8" standalone="no"?>
<svg
   xmlns:dc="http://purl.org/dc/elements/1.1/"
   xmlns:cc="http://creativecommons.org/ns#"
   xmlns:rdf="http://www.w3.org/1999/02/22-rdf-syntax-ns#"
   xmlns:svg="http://www.w3.org/2000/svg"
   xmlns="http://www.w3.org/2000/svg"
   xmlns:sodipodi="http://sodipodi.sourceforge.net/DTD/sodipodi-0.dtd"
   xmlns:inkscape="http://www.inkscape.org/namespaces/inkscape"
   version="1.1"
   id="svg2"
   xml:space="preserve"
   width="1000"
   height="666.66669"
   viewBox="0 0 1000 666.66669"
   sodipodi:docname="3563934.eps"><metadata
     id="metadata8"><rdf:RDF><cc:Work
         rdf:about=""><dc:format>image/svg+xml</dc:format><dc:type
           rdf:resource="http://purl.org/dc/dcmitype/StillImage" /></cc:Work></rdf:RDF></metadata><defs
     id="defs6" /><sodipodi:namedview
     pagecolor="#ffffff"
     bordercolor="#666666"
     borderopacity="1"
     objecttolerance="10"
     gridtolerance="10"
     guidetolerance="10"
     inkscape:pageopacity="0"
     inkscape:pageshadow="2"
     inkscape:window-width="640"
     inkscape:window-height="480"
     id="namedview4" /><g
     id="g10"
     inkscape:groupmode="layer"
     inkscape:label="ink_ext_XXXXXX"
     transform="matrix(1.3333333,0,0,-1.3333333,0,666.66667)"><g
       id="g12"
       opacity="0.10"
       transform="scale(0.1)"><path
         d="M 7500,0 H 0 V 5000 H 7500 V 0"
         style="fill:#1c1c1e00;fill-opacity:1;fill-rule:nonzero;stroke:none"
         id="path14" /><path
         d="m 869.18,1328.08 c -96.871,0 -175.68,78.81 -175.68,175.68 0,96.87 78.809,175.68 175.68,175.68 96.871,0 175.68,-78.81 175.68,-175.68 0,-96.87 -78.809,-175.68 -175.68,-175.68"
         style="fill:#5a5e5f;fill-opacity:1;fill-rule:nonzero;stroke:none"
         id="path16" /><path
         d="m 7139.98,0 h -2070.9 v 443.359 h 2070.9 V 0"
         style="fill:#9E9E9E50;fill-opacity:1;fill-rule:nonzero;stroke:none"
         id="path18" /><path
         d="m 6623.35,0 v 983.398 h 680.04 V 0 h -680.04"
         style="fill:#828887;fill-opacity:1;fill-rule:nonzero;stroke:none"
         id="path20" /><path
         d="M 7500,0 H 7109.8 V 192.5 H 7500 V 0"
         style="fill:#20A8FF;fill-opacity:1;fill-rule:nonzero;stroke:none"
         id="path22" /><path
         d="M 6169.43,1461.12 H 4568.78 V 3061.77 H 6169.43 V 1461.12"
         style="fill:#9E9E9E50;fill-opacity:1;fill-rule:nonzero;stroke:none"
         id="path24" /><path
         d="M 673.145,-1.16797 1611.66,1758.56 2550.17,-1.16797 Z"
         style="fill:#9E9E9E50;fill-opacity:1;fill-rule:nonzero;stroke:none"
         id="path26" /><path
         d="m 5069.69,1986.76 h -7.37 v 1610.21 h 7.37 V 1986.76"
         style="fill:#5a5e5f;fill-opacity:1;fill-rule:nonzero;stroke:none"
         id="path28" /><path
         d="m 5307.06,1986.76 h -7.36 v 1610.21 h 7.36 V 1986.76"
         style="fill:#5a5e5f;fill-opacity:1;fill-rule:nonzero;stroke:none"
         id="path30" /><path
         d="m 5544.43,1986.76 h -7.36 v 1610.21 h 7.36 V 1986.76"
         style="fill:#5a5e5f;fill-opacity:1;fill-rule:nonzero;stroke:none"
         id="path32" /><path
         d="m 5781.81,1986.76 h -7.37 v 1610.21 h 7.37 V 1986.76"
         style="fill:#5a5e5f;fill-opacity:1;fill-rule:nonzero;stroke:none"
         id="path34" /><path
         d="m 6019.18,1986.76 h -7.36 v 1610.21 h 7.36 V 1986.76"
         style="fill:#5a5e5f;fill-opacity:1;fill-rule:nonzero;stroke:none"
         id="path36" /><path
         d="m 6256.55,1986.76 h -7.36 v 1610.21 h 7.36 V 1986.76"
         style="fill:#5a5e5f;fill-opacity:1;fill-rule:nonzero;stroke:none"
         id="path38" /><path
         d="m 6464.54,3381.61 h -1610.2 v 7.37 h 1610.2 v -7.37"
         style="fill:#5a5e5f;fill-opacity:1;fill-rule:nonzero;stroke:none"
         id="path40" /><path
         d="m 6464.54,3144.24 h -1610.2 v 7.36 h 1610.2 v -7.36"
         style="fill:#5a5e5f;fill-opacity:1;fill-rule:nonzero;stroke:none"
         id="path42" /><path
         d="m 6464.54,2906.87 h -1610.2 v 7.36 h 1610.2 v -7.36"
         style="fill:#5a5e5f;fill-opacity:1;fill-rule:nonzero;stroke:none"
         id="path44" /><path
         d="m 6464.54,2669.49 h -1610.2 v 7.37 h 1610.2 v -7.37"
         style="fill:#5a5e5f;fill-opacity:1;fill-rule:nonzero;stroke:none"
         id="path46" /><path
         d="m 6464.54,2432.12 h -1610.2 v 7.37 h 1610.2 v -7.37"
         style="fill:#5a5e5f;fill-opacity:1;fill-rule:nonzero;stroke:none"
         id="path48" /><path
         d="m 6464.54,2194.75 h -1610.2 v 7.36 h 1610.2 v -7.36"
         style="fill:#5a5e5f;fill-opacity:1;fill-rule:nonzero;stroke:none"
         id="path50" /><path
         d="m 1182.22,-960.59 h -7.37 V 649.609 h 7.37 V -960.59"
         style="fill:#5a5e5f;fill-opacity:1;fill-rule:nonzero;stroke:none"
         id="path52" /><path
         d="m 1419.59,-960.59 h -7.36 V 649.609 h 7.36 V -960.59"
         style="fill:#5a5e5f;fill-opacity:1;fill-rule:nonzero;stroke:none"
         id="path54" /><path
         d="m 1656.96,-960.59 h -7.36 V 649.609 h 7.36 V -960.59"
         style="fill:#5a5e5f;fill-opacity:1;fill-rule:nonzero;stroke:none"
         id="path56" /><path
         d="m 1894.34,-960.59 h -7.37 V 649.609 h 7.37 V -960.59"
         style="fill:#5a5e5f;fill-opacity:1;fill-rule:nonzero;stroke:none"
         id="path58" /><path
         d="m 2131.71,-960.59 h -7.36 V 649.609 h 7.36 V -960.59"
         style="fill:#5a5e5f;fill-opacity:1;fill-rule:nonzero;stroke:none"
         id="path60" /><path
         d="m 2369.09,-960.59 h -7.37 V 649.609 h 7.37 V -960.59"
         style="fill:#5a5e5f;fill-opacity:1;fill-rule:nonzero;stroke:none"
         id="path62" /><path
         d="M 2577.07,434.262 H 966.863 v 7.359 H 2577.07 v -7.359"
         style="fill:#5a5e5f;fill-opacity:1;fill-rule:nonzero;stroke:none"
         id="path64" /><path
         d="M 2577.07,196.891 H 966.863 v 7.359 H 2577.07 v -7.359"
         style="fill:#5a5e5f;fill-opacity:1;fill-rule:nonzero;stroke:none"
         id="path66" /><path
         d="m 7229.93,4469.02 c 0,-481.61 -390.43,-872.04 -872.05,-872.04 -481.62,0 -872.05,390.43 -872.05,872.04 0,481.62 390.43,872.05 872.05,872.05 481.62,0 872.05,-390.43 872.05,-872.05"
         style="fill:#9E9E9E50;fill-opacity:1;fill-rule:nonzero;stroke:none"
         id="path68" /><path
         d="m 2334.87,2954.91 c 0,-323.11 -261.94,-585.05 -585.06,-585.05 -323.11,0 -585.05,261.94 -585.05,585.05 0,323.12 261.94,585.06 585.05,585.06 323.12,0 585.06,-261.94 585.06,-585.06"
         style="fill:#9E9E9E50;fill-opacity:1;fill-rule:nonzero;stroke:none"
         id="path70" /><path
         d="M 3756.56,4707.97 H 1771.97 V 5000 h 1984.59 v -292.03"
         style="fill:#9E9E9E50;fill-opacity:1;fill-rule:nonzero;stroke:none"
         id="path72" /><path
         d="m 638.098,2790.69 -247.602,-247.6 v 14.14 l 247.602,247.6 v -14.14"
         style="fill:#838687;fill-opacity:1;fill-rule:nonzero;stroke:none"
         id="path74" /><path
         d="m 638.098,2662.56 -247.602,-247.6 v 14.14 l 247.602,247.6 v -14.14"
         style="fill:#838687;fill-opacity:1;fill-rule:nonzero;stroke:none"
         id="path76" /><path
         d="m 638.098,2534.43 -247.602,-247.6 v 14.14 l 247.602,247.6 v -14.14"
         style="fill:#838687;fill-opacity:1;fill-rule:nonzero;stroke:none"
         id="path78" /><path
         d="M 638.098,2406.3 390.496,2158.69 v 14.14 l 247.602,247.61 v -14.14"
         style="fill:#838687;fill-opacity:1;fill-rule:nonzero;stroke:none"
         id="path80" /><path
         d="m 638.098,2278.17 -247.602,-247.6 v 14.14 l 247.602,247.6 v -14.14"
         style="fill:#838687;fill-opacity:1;fill-rule:nonzero;stroke:none"
         id="path82" /><path
         d="M 638.098,2150.04 390.496,1902.43 v 14.15 l 247.602,247.6 v -14.14"
         style="fill:#838687;fill-opacity:1;fill-rule:nonzero;stroke:none"
         id="path84" /><path
         d="m 638.098,2021.91 -247.602,-247.6 v 14.14 l 247.602,247.6 v -14.14"
         style="fill:#838687;fill-opacity:1;fill-rule:nonzero;stroke:none"
         id="path86" /><path
         d="m 6574.21,4056.36 247.6,-247.6 v 14.14 l -247.6,247.6 v -14.14"
         style="fill:#eeefee;fill-opacity:1;fill-rule:nonzero;stroke:none"
         id="path88" /><path
         d="m 6574.21,3928.23 247.6,-247.6 v 14.14 l -247.6,247.6 v -14.14"
         style="fill:#eeefee;fill-opacity:1;fill-rule:nonzero;stroke:none"
         id="path90" /><path
         d="m 6574.21,3800.09 247.6,-247.6 v 14.14 l -247.6,247.6 v -14.14"
         style="fill:#eeefee;fill-opacity:1;fill-rule:nonzero;stroke:none"
         id="path92" /><path
         d="m 6574.21,3671.97 247.6,-247.6 v 14.14 l -247.6,247.6 v -14.14"
         style="fill:#eeefee;fill-opacity:1;fill-rule:nonzero;stroke:none"
         id="path94" /><path
         d="m 6574.21,3543.83 247.6,-247.6 v 14.14 l -247.6,247.6 v -14.14"
         style="fill:#eeefee;fill-opacity:1;fill-rule:nonzero;stroke:none"
         id="path96" /><path
         d="m 6574.21,3415.71 247.6,-247.6 v 14.14 l -247.6,247.6 v -14.14"
         style="fill:#eeefee;fill-opacity:1;fill-rule:nonzero;stroke:none"
         id="path98" /><path
         d="m 6574.21,3287.57 247.6,-247.6 v 14.14 l -247.6,247.6 v -14.14"
         style="fill:#eeefee;fill-opacity:1;fill-rule:nonzero;stroke:none"
         id="path100" /><path
         d="m 6574.21,3159.45 247.6,-247.6 v 14.14 l -247.6,247.6 v -14.14"
         style="fill:#eeefee;fill-opacity:1;fill-rule:nonzero;stroke:none"
         id="path102" /><path
         d="m 6574.21,3031.31 247.6,-247.6 v 14.14 l -247.6,247.6 v -14.14"
         style="fill:#eeefee;fill-opacity:1;fill-rule:nonzero;stroke:none"
         id="path104" /><path
         d="m 6574.21,2903.19 247.6,-247.6 v 14.14 l -247.6,247.6 v -14.14"
         style="fill:#eeefee;fill-opacity:1;fill-rule:nonzero;stroke:none"
         id="path106" /><path
         d="m 6574.21,2775.05 247.6,-247.6 v 14.14 l -247.6,247.6 v -14.14"
         style="fill:#eeefee;fill-opacity:1;fill-rule:nonzero;stroke:none"
         id="path108" /><path
         d="m 6574.21,2646.93 247.6,-247.6 v 14.14 l -247.6,247.6 v -14.14"
         style="fill:#eeefee;fill-opacity:1;fill-rule:nonzero;stroke:none"
         id="path110" /><path
         d="m 6574.21,2518.79 247.6,-247.6 v 14.14 l -247.6,247.6 v -14.14"
         style="fill:#eeefee;fill-opacity:1;fill-rule:nonzero;stroke:none"
         id="path112" /><path
         d="m 6574.21,2390.67 247.6,-247.6 v 14.14 l -247.6,247.6 v -14.14"
         style="fill:#eeefee;fill-opacity:1;fill-rule:nonzero;stroke:none"
         id="path114" /><path
         d="m 1629.58,2091.1 705.22,475.37 559.64,-247.39 z m 752.11,1045.06 -52.15,-561.18 -701.66,-472.97 z m 516.82,-807.93 -558.9,247.05 52.35,563.3 z m 21.03,-14.77 -530.86,849.24 -792.39,-1087.77 1323.25,238.53"
         style="fill:#20A8FF;fill-opacity:1;fill-rule:nonzero;stroke:none"
         id="path116" /><path
         d="m 868.324,3499.56 h -56.578 l 282.994,282.98 h 56.57 z M 559.477,4374.38 V 4319.2 L 276.492,4036.21 v 55.18 z m -282.985,-802.2 282.985,282.99 v -58.49 L 276.492,3513.7 Z m 282.985,670.86 -282.985,-282.98 v 69.08 l 282.985,282.99 z m -282.985,-594.7 282.985,282.99 v -69.09 L 276.492,3579.25 Z m 0,76.16 282.985,282.99 V 3938.4 L 276.492,3655.41 Z m 0,76.17 282.985,282.99 v -69.1 L 276.492,3731.58 Z m 0,76.16 282.985,282.98 v -69.08 L 276.492,3807.74 Z m 0,76.16 282.985,282.98 v -69.09 L 276.492,3883.9 Z m 14.145,-453.43 282.98,282.98 h 58.285 l -282.98,-282.98 z m 65.355,0 282.985,282.98 h 68.89 L 424.879,3499.56 Z m 75.957,0 282.989,282.98 h 68.886 L 500.84,3499.56 Z m 75.961,0 282.985,282.98 h 68.89 L 576.797,3499.56 Z m 75.957,0 282.988,282.98 h 68.891 L 652.758,3499.56 Z m 75.961,0 282.988,282.98 H 1011.7 L 728.723,3499.56 Z m 75.965,0 282.977,282.98 h 68.9 L 804.68,3499.56 Z m 429.657,302.98 H 579.477 v 585.98 h 585.973 z m 20,595.98 c 0,5.53 -4.48,10 -10,10 H 569.477 c -1.301,0 -2.598,-0.27 -3.817,-0.77 -1.226,-0.51 -2.336,-1.24 -3.258,-2.17 L 259.426,4102.6 c -1.875,-1.87 -2.934,-4.41 -2.934,-7.07 v -605.97 c 0,-1.3 0.266,-2.59 0.774,-3.82 1.015,-2.45 2.964,-4.39 5.41,-5.41 1.219,-0.5 2.515,-0.77 3.816,-0.77 h 605.973 c 2.652,0 5.195,1.06 7.07,2.93 l 302.975,302.97 c 0.93,0.93 1.66,2.03 2.17,3.26 0.51,1.22 0.77,2.52 0.77,3.82 v 605.98"
         style="fill:#e2e2e0;fill-opacity:1;fill-rule:nonzero;stroke:none"
         id="path118" /><path
         d="m 7893.75,3472.14 v -56.57 l -282.98,282.99 v 56.57 z m -874.81,-308.85 h 55.17 l 282.99,-282.97 h -55.18 z m 802.19,-282.97 -282.99,282.97 h 58.49 l 282.98,-282.97 z m -670.86,282.97 282.98,-282.97 h -69.08 l -282.99,282.97 z m 594.7,-282.97 -282.99,282.97 h 69.09 l 282.99,-282.97 z m -76.16,0 -282.99,282.97 h 69.09 l 282.99,-282.97 z m -76.16,0 -282.99,282.97 h 69.09 l 282.99,-282.97 z m -76.17,0 -282.97,282.97 h 69.08 l 282.99,-282.97 z m -76.16,0 -282.98,282.97 h 69.1 l 282.97,-282.97 z m 453.43,14.14 -282.98,282.97 v 58.3 l 282.98,-282.99 z m 0,65.35 -282.98,282.99 v 68.88 l 282.98,-282.99 z m 0,75.95 -282.98,282.99 v 68.89 l 282.98,-282.98 z m 0,75.97 -282.98,282.98 v 68.9 l 282.98,-282.99 z m 0,75.96 -282.98,282.99 v 68.88 l 282.98,-282.98 z m 0,75.96 -282.98,282.98 v 68.89 l 282.98,-282.98 z m 0,75.96 -282.98,282.98 v 68.9 l 282.98,-282.99 z m -302.98,429.66 v -585.98 h -585.98 v 585.98 z m -595.98,20 c -5.52,0 -10,-4.48 -10,-10 v -605.98 c 0,-1.3 0.27,-2.59 0.78,-3.81 0.5,-1.24 1.24,-2.34 2.16,-3.26 l 302.98,-302.98 c 1.88,-1.87 4.42,-2.92 7.07,-2.92 h 605.97 c 1.3,0 2.6,0.26 3.82,0.77 2.45,1 4.39,2.96 5.41,5.41 0.51,1.22 0.77,2.51 0.77,3.82 v 605.96 c 0,2.66 -1.05,5.2 -2.93,7.07 l -302.97,302.98 c -0.93,0.93 -2.03,1.66 -3.26,2.17 -1.22,0.5 -2.52,0.77 -3.82,0.77 h -605.98"
         style="fill:#838687;fill-opacity:1;fill-rule:nonzero;stroke:none"
         id="path120" /><path
         d="m 658.223,4819.31 c 0,-10 8.105,-18.11 18.101,-18.11 10,0 18.106,8.11 18.106,18.11 0,10 -8.106,18.1 -18.106,18.1 -9.996,0 -18.101,-8.1 -18.101,-18.1"
         style="fill:#828887;fill-opacity:1;fill-rule:nonzero;stroke:none"
         id="path122" /><path
         d="m 857.816,4819.31 c 0,-10 8.106,-18.11 18.102,-18.11 10,0 18.105,8.11 18.105,18.11 0,10 -8.105,18.1 -18.105,18.1 -9.996,0 -18.102,-8.1 -18.102,-18.1"
         style="fill:#828887;fill-opacity:1;fill-rule:nonzero;stroke:none"
         id="path124" /><path
         d="m 1057.41,4819.31 c 0,-10 8.11,-18.11 18.11,-18.11 9.99,0 18.1,8.11 18.1,18.11 0,10 -8.11,18.1 -18.1,18.1 -10,0 -18.11,-8.1 -18.11,-18.1"
         style="fill:#828887;fill-opacity:1;fill-rule:nonzero;stroke:none"
         id="path126" /><path
         d="m 1257.01,4819.31 c 0,-10 8.1,-18.11 18.1,-18.11 10,0 18.11,8.11 18.11,18.11 0,10 -8.11,18.1 -18.11,18.1 -10,0 -18.1,-8.1 -18.1,-18.1"
         style="fill:#828887;fill-opacity:1;fill-rule:nonzero;stroke:none"
         id="path128" /><path
         d="m 1456.61,4819.31 c 0,-10 8.1,-18.11 18.1,-18.11 10,0 18.1,8.11 18.1,18.11 0,10 -8.1,18.1 -18.1,18.1 -10,0 -18.1,-8.1 -18.1,-18.1"
         style="fill:#828887;fill-opacity:1;fill-rule:nonzero;stroke:none"
         id="path130" /><path
         d="m 1656.2,4819.31 c 0,-10 8.11,-18.11 18.1,-18.11 10,0 18.11,8.11 18.11,18.11 0,10 -8.11,18.1 -18.11,18.1 -9.99,0 -18.1,-8.1 -18.1,-18.1"
         style="fill:#828887;fill-opacity:1;fill-rule:nonzero;stroke:none"
         id="path132" /><path
         d="m 1855.8,4819.31 c 0,-10 8.1,-18.11 18.1,-18.11 10,0 18.1,8.11 18.1,18.11 0,10 -8.1,18.1 -18.1,18.1 -10,0 -18.1,-8.1 -18.1,-18.1"
         style="fill:#828887;fill-opacity:1;fill-rule:nonzero;stroke:none"
         id="path134" /><path
         d="m 2055.39,4819.31 c 0,-10 8.11,-18.11 18.11,-18.11 10,0 18.1,8.11 18.1,18.11 0,10 -8.1,18.1 -18.1,18.1 -10,0 -18.11,-8.1 -18.11,-18.1"
         style="fill:#828887;fill-opacity:1;fill-rule:nonzero;stroke:none"
         id="path136" /><path
         d="m 2254.99,4819.31 c 0,-10 8.1,-18.11 18.1,-18.11 10,0 18.11,8.11 18.11,18.11 0,10 -8.11,18.1 -18.11,18.1 -10,0 -18.1,-8.1 -18.1,-18.1"
         style="fill:#828887;fill-opacity:1;fill-rule:nonzero;stroke:none"
         id="path138" /><path
         d="m 2454.58,4819.31 c 0,-10 8.11,-18.11 18.11,-18.11 10,0 18.1,8.11 18.1,18.11 0,10 -8.1,18.1 -18.1,18.1 -10,0 -18.11,-8.1 -18.11,-18.1"
         style="fill:#828887;fill-opacity:1;fill-rule:nonzero;stroke:none"
         id="path140" /><path
         d="m 2654.18,4819.31 c 0,-10 8.11,-18.11 18.11,-18.11 9.99,0 18.1,8.11 18.1,18.11 0,10 -8.11,18.1 -18.1,18.1 -10,0 -18.11,-8.1 -18.11,-18.1"
         style="fill:#828887;fill-opacity:1;fill-rule:nonzero;stroke:none"
         id="path142" /><path
         d="m 2853.77,4819.31 c 0,-10 8.11,-18.11 18.11,-18.11 10,0 18.11,8.11 18.11,18.11 0,10 -8.11,18.1 -18.11,18.1 -10,0 -18.11,-8.1 -18.11,-18.1"
         style="fill:#828887;fill-opacity:1;fill-rule:nonzero;stroke:none"
         id="path144" /><path
         d="m 3053.37,4819.31 c 0,-10 8.1,-18.11 18.1,-18.11 10,0 18.11,8.11 18.11,18.11 0,10 -8.11,18.1 -18.11,18.1 -10,0 -18.1,-8.1 -18.1,-18.1"
         style="fill:#828887;fill-opacity:1;fill-rule:nonzero;stroke:none"
         id="path146" /><path
         d="m 658.223,4649.25 c 0,-10 8.105,-18.11 18.101,-18.11 10,0 18.106,8.11 18.106,18.11 0,9.99 -8.106,18.1 -18.106,18.1 -9.996,0 -18.101,-8.11 -18.101,-18.1"
         style="fill:#828887;fill-opacity:1;fill-rule:nonzero;stroke:none"
         id="path148" /><path
         d="m 857.816,4649.25 c 0,-10 8.106,-18.11 18.102,-18.11 10,0 18.105,8.11 18.105,18.11 0,9.99 -8.105,18.1 -18.105,18.1 -9.996,0 -18.102,-8.11 -18.102,-18.1"
         style="fill:#828887;fill-opacity:1;fill-rule:nonzero;stroke:none"
         id="path150" /><path
         d="m 1057.41,4649.25 c 0,-10 8.11,-18.11 18.11,-18.11 9.99,0 18.1,8.11 18.1,18.11 0,9.99 -8.11,18.1 -18.1,18.1 -10,0 -18.11,-8.11 -18.11,-18.1"
         style="fill:#828887;fill-opacity:1;fill-rule:nonzero;stroke:none"
         id="path152" /><path
         d="m 1257.01,4649.25 c 0,-10 8.1,-18.11 18.1,-18.11 10,0 18.11,8.11 18.11,18.11 0,9.99 -8.11,18.1 -18.11,18.1 -10,0 -18.1,-8.11 -18.1,-18.1"
         style="fill:#828887;fill-opacity:1;fill-rule:nonzero;stroke:none"
         id="path154" /><path
         d="m 1456.61,4649.25 c 0,-10 8.1,-18.11 18.1,-18.11 10,0 18.1,8.11 18.1,18.11 0,9.99 -8.1,18.1 -18.1,18.1 -10,0 -18.1,-8.11 -18.1,-18.1"
         style="fill:#828887;fill-opacity:1;fill-rule:nonzero;stroke:none"
         id="path156" /><path
         d="m 1656.2,4649.25 c 0,-10 8.11,-18.11 18.1,-18.11 10,0 18.11,8.11 18.11,18.11 0,9.99 -8.11,18.1 -18.11,18.1 -9.99,0 -18.1,-8.11 -18.1,-18.1"
         style="fill:#828887;fill-opacity:1;fill-rule:nonzero;stroke:none"
         id="path158" /><path
         d="m 1855.8,4649.25 c 0,-10 8.1,-18.11 18.1,-18.11 10,0 18.1,8.11 18.1,18.11 0,9.99 -8.1,18.1 -18.1,18.1 -10,0 -18.1,-8.11 -18.1,-18.1"
         style="fill:#828887;fill-opacity:1;fill-rule:nonzero;stroke:none"
         id="path160" /><path
         d="m 2055.39,4649.25 c 0,-10 8.11,-18.11 18.11,-18.11 10,0 18.1,8.11 18.1,18.11 0,9.99 -8.1,18.1 -18.1,18.1 -10,0 -18.11,-8.11 -18.11,-18.1"
         style="fill:#828887;fill-opacity:1;fill-rule:nonzero;stroke:none"
         id="path162" /><path
         d="m 2254.99,4649.25 c 0,-10 8.1,-18.11 18.1,-18.11 10,0 18.11,8.11 18.11,18.11 0,9.99 -8.11,18.1 -18.11,18.1 -10,0 -18.1,-8.11 -18.1,-18.1"
         style="fill:#828887;fill-opacity:1;fill-rule:nonzero;stroke:none"
         id="path164" /><path
         d="m 2454.58,4649.25 c 0,-10 8.11,-18.11 18.11,-18.11 10,0 18.1,8.11 18.1,18.11 0,9.99 -8.1,18.1 -18.1,18.1 -10,0 -18.11,-8.11 -18.11,-18.1"
         style="fill:#828887;fill-opacity:1;fill-rule:nonzero;stroke:none"
         id="path166" /><path
         d="m 2654.18,4649.25 c 0,-10 8.11,-18.11 18.11,-18.11 9.99,0 18.1,8.11 18.1,18.11 0,9.99 -8.11,18.1 -18.1,18.1 -10,0 -18.11,-8.11 -18.11,-18.1"
         style="fill:#828887;fill-opacity:1;fill-rule:nonzero;stroke:none"
         id="path168" /><path
         d="m 2853.77,4649.25 c 0,-10 8.11,-18.11 18.11,-18.11 10,0 18.11,8.11 18.11,18.11 0,9.99 -8.11,18.1 -18.11,18.1 -10,0 -18.11,-8.11 -18.11,-18.1"
         style="fill:#828887;fill-opacity:1;fill-rule:nonzero;stroke:none"
         id="path170" /><path
         d="m 3053.37,4649.25 c 0,-10 8.1,-18.11 18.1,-18.11 10,0 18.11,8.11 18.11,18.11 0,9.99 -8.11,18.1 -18.11,18.1 -10,0 -18.1,-8.11 -18.1,-18.1"
         style="fill:#828887;fill-opacity:1;fill-rule:nonzero;stroke:none"
         id="path172" /><path
         d="m 658.223,4479.18 c 0,-10 8.105,-18.1 18.101,-18.1 10,0 18.106,8.1 18.106,18.1 0,10 -8.106,18.11 -18.106,18.11 -9.996,0 -18.101,-8.11 -18.101,-18.11"
         style="fill:#828887;fill-opacity:1;fill-rule:nonzero;stroke:none"
         id="path174" /><path
         d="m 857.816,4479.18 c 0,-10 8.106,-18.1 18.102,-18.1 10,0 18.105,8.1 18.105,18.1 0,10 -8.105,18.11 -18.105,18.11 -9.996,0 -18.102,-8.11 -18.102,-18.11"
         style="fill:#828887;fill-opacity:1;fill-rule:nonzero;stroke:none"
         id="path176" /><path
         d="m 1057.41,4479.18 c 0,-10 8.11,-18.1 18.11,-18.1 9.99,0 18.1,8.1 18.1,18.1 0,10 -8.11,18.11 -18.1,18.11 -10,0 -18.11,-8.11 -18.11,-18.11"
         style="fill:#828887;fill-opacity:1;fill-rule:nonzero;stroke:none"
         id="path178" /><path
         d="m 1257.01,4479.18 c 0,-10 8.1,-18.1 18.1,-18.1 10,0 18.11,8.1 18.11,18.1 0,10 -8.11,18.11 -18.11,18.11 -10,0 -18.1,-8.11 -18.1,-18.11"
         style="fill:#828887;fill-opacity:1;fill-rule:nonzero;stroke:none"
         id="path180" /><path
         d="m 1456.61,4479.18 c 0,-10 8.1,-18.1 18.1,-18.1 10,0 18.1,8.1 18.1,18.1 0,10 -8.1,18.11 -18.1,18.11 -10,0 -18.1,-8.11 -18.1,-18.11"
         style="fill:#828887;fill-opacity:1;fill-rule:nonzero;stroke:none"
         id="path182" /><path
         d="m 1656.2,4479.18 c 0,-10 8.11,-18.1 18.1,-18.1 10,0 18.11,8.1 18.11,18.1 0,10 -8.11,18.11 -18.11,18.11 -9.99,0 -18.1,-8.11 -18.1,-18.11"
         style="fill:#828887;fill-opacity:1;fill-rule:nonzero;stroke:none"
         id="path184" /><path
         d="m 1855.8,4479.18 c 0,-10 8.1,-18.1 18.1,-18.1 10,0 18.1,8.1 18.1,18.1 0,10 -8.1,18.11 -18.1,18.11 -10,0 -18.1,-8.11 -18.1,-18.11"
         style="fill:#828887;fill-opacity:1;fill-rule:nonzero;stroke:none"
         id="path186" /><path
         d="m 2055.39,4479.18 c 0,-10 8.11,-18.1 18.11,-18.1 10,0 18.1,8.1 18.1,18.1 0,10 -8.1,18.11 -18.1,18.11 -10,0 -18.11,-8.11 -18.11,-18.11"
         style="fill:#828887;fill-opacity:1;fill-rule:nonzero;stroke:none"
         id="path188" /><path
         d="m 2254.99,4479.18 c 0,-10 8.1,-18.1 18.1,-18.1 10,0 18.11,8.1 18.11,18.1 0,10 -8.11,18.11 -18.11,18.11 -10,0 -18.1,-8.11 -18.1,-18.11"
         style="fill:#828887;fill-opacity:1;fill-rule:nonzero;stroke:none"
         id="path190" /><path
         d="m 2454.58,4479.18 c 0,-10 8.11,-18.1 18.11,-18.1 10,0 18.1,8.1 18.1,18.1 0,10 -8.1,18.11 -18.1,18.11 -10,0 -18.11,-8.11 -18.11,-18.11"
         style="fill:#828887;fill-opacity:1;fill-rule:nonzero;stroke:none"
         id="path192" /><path
         d="m 2654.18,4479.18 c 0,-10 8.11,-18.1 18.11,-18.1 9.99,0 18.1,8.1 18.1,18.1 0,10 -8.11,18.11 -18.1,18.11 -10,0 -18.11,-8.11 -18.11,-18.11"
         style="fill:#828887;fill-opacity:1;fill-rule:nonzero;stroke:none"
         id="path194" /><path
         d="m 2853.77,4479.18 c 0,-10 8.11,-18.1 18.11,-18.1 10,0 18.11,8.1 18.11,18.1 0,10 -8.11,18.11 -18.11,18.11 -10,0 -18.11,-8.11 -18.11,-18.11"
         style="fill:#828887;fill-opacity:1;fill-rule:nonzero;stroke:none"
         id="path196" /><path
         d="m 3053.37,4479.18 c 0,-10 8.1,-18.1 18.1,-18.1 10,0 18.11,8.1 18.11,18.1 0,10 -8.11,18.11 -18.11,18.11 -10,0 -18.1,-8.11 -18.1,-18.11"
         style="fill:#828887;fill-opacity:1;fill-rule:nonzero;stroke:none"
         id="path198" /><path
         d="m 658.223,4309.11 c 0,-9.98 8.105,-18.09 18.101,-18.09 10,0 18.106,8.11 18.106,18.09 0,10 -8.106,18.11 -18.106,18.11 -9.996,0 -18.101,-8.11 -18.101,-18.11"
         style="fill:#828887;fill-opacity:1;fill-rule:nonzero;stroke:none"
         id="path200" /><path
         d="m 857.816,4309.11 c 0,-9.98 8.106,-18.09 18.102,-18.09 10,0 18.105,8.11 18.105,18.09 0,10 -8.105,18.11 -18.105,18.11 -9.996,0 -18.102,-8.11 -18.102,-18.11"
         style="fill:#828887;fill-opacity:1;fill-rule:nonzero;stroke:none"
         id="path202" /><path
         d="m 1057.41,4309.11 c 0,-9.98 8.11,-18.09 18.11,-18.09 9.99,0 18.1,8.11 18.1,18.09 0,10 -8.11,18.11 -18.1,18.11 -10,0 -18.11,-8.11 -18.11,-18.11"
         style="fill:#828887;fill-opacity:1;fill-rule:nonzero;stroke:none"
         id="path204" /><path
         d="m 1257.01,4309.11 c 0,-9.98 8.1,-18.09 18.1,-18.09 10,0 18.11,8.11 18.11,18.09 0,10 -8.11,18.11 -18.11,18.11 -10,0 -18.1,-8.11 -18.1,-18.11"
         style="fill:#828887;fill-opacity:1;fill-rule:nonzero;stroke:none"
         id="path206" /><path
         d="m 1456.61,4309.11 c 0,-9.98 8.1,-18.09 18.1,-18.09 10,0 18.1,8.11 18.1,18.09 0,10 -8.1,18.11 -18.1,18.11 -10,0 -18.1,-8.11 -18.1,-18.11"
         style="fill:#828887;fill-opacity:1;fill-rule:nonzero;stroke:none"
         id="path208" /><path
         d="m 1656.2,4309.11 c 0,-9.98 8.11,-18.09 18.1,-18.09 10,0 18.11,8.11 18.11,18.09 0,10 -8.11,18.11 -18.11,18.11 -9.99,0 -18.1,-8.11 -18.1,-18.11"
         style="fill:#828887;fill-opacity:1;fill-rule:nonzero;stroke:none"
         id="path210" /><path
         d="m 1855.8,4309.11 c 0,-9.98 8.1,-18.09 18.1,-18.09 10,0 18.1,8.11 18.1,18.09 0,10 -8.1,18.11 -18.1,18.11 -10,0 -18.1,-8.11 -18.1,-18.11"
         style="fill:#828887;fill-opacity:1;fill-rule:nonzero;stroke:none"
         id="path212" /><path
         d="m 2055.39,4309.11 c 0,-9.98 8.11,-18.09 18.11,-18.09 10,0 18.1,8.11 18.1,18.09 0,10 -8.1,18.11 -18.1,18.11 -10,0 -18.11,-8.11 -18.11,-18.11"
         style="fill:#828887;fill-opacity:1;fill-rule:nonzero;stroke:none"
         id="path214" /><path
         d="m 2254.99,4309.11 c 0,-9.98 8.1,-18.09 18.1,-18.09 10,0 18.11,8.11 18.11,18.09 0,10 -8.11,18.11 -18.11,18.11 -10,0 -18.1,-8.11 -18.1,-18.11"
         style="fill:#828887;fill-opacity:1;fill-rule:nonzero;stroke:none"
         id="path216" /><path
         d="m 2454.58,4309.11 c 0,-9.98 8.11,-18.09 18.11,-18.09 10,0 18.1,8.11 18.1,18.09 0,10 -8.1,18.11 -18.1,18.11 -10,0 -18.11,-8.11 -18.11,-18.11"
         style="fill:#828887;fill-opacity:1;fill-rule:nonzero;stroke:none"
         id="path218" /><path
         d="m 2654.18,4309.11 c 0,-9.98 8.11,-18.09 18.11,-18.09 9.99,0 18.1,8.11 18.1,18.09 0,10 -8.11,18.11 -18.1,18.11 -10,0 -18.11,-8.11 -18.11,-18.11"
         style="fill:#828887;fill-opacity:1;fill-rule:nonzero;stroke:none"
         id="path220" /><path
         d="m 2853.77,4309.11 c 0,-9.98 8.11,-18.09 18.11,-18.09 10,0 18.11,8.11 18.11,18.09 0,10 -8.11,18.11 -18.11,18.11 -10,0 -18.11,-8.11 -18.11,-18.11"
         style="fill:#828887;fill-opacity:1;fill-rule:nonzero;stroke:none"
         id="path222" /><path
         d="m 3053.37,4309.11 c 0,-9.98 8.1,-18.09 18.1,-18.09 10,0 18.11,8.11 18.11,18.09 0,10 -8.11,18.11 -18.11,18.11 -10,0 -18.1,-8.11 -18.1,-18.11"
         style="fill:#828887;fill-opacity:1;fill-rule:nonzero;stroke:none"
         id="path224" /><path
         d="m 658.223,4139.05 c 0,-10 8.105,-18.1 18.101,-18.1 10,0 18.106,8.1 18.106,18.1 0,10 -8.106,18.11 -18.106,18.11 -9.996,0 -18.101,-8.11 -18.101,-18.11"
         style="fill:#828887;fill-opacity:1;fill-rule:nonzero;stroke:none"
         id="path226" /><path
         d="m 857.816,4139.05 c 0,-10 8.106,-18.1 18.102,-18.1 10,0 18.105,8.1 18.105,18.1 0,10 -8.105,18.11 -18.105,18.11 -9.996,0 -18.102,-8.11 -18.102,-18.11"
         style="fill:#828887;fill-opacity:1;fill-rule:nonzero;stroke:none"
         id="path228" /><path
         d="m 1057.41,4139.05 c 0,-10 8.11,-18.1 18.11,-18.1 9.99,0 18.1,8.1 18.1,18.1 0,10 -8.11,18.11 -18.1,18.11 -10,0 -18.11,-8.11 -18.11,-18.11"
         style="fill:#828887;fill-opacity:1;fill-rule:nonzero;stroke:none"
         id="path230" /><path
         d="m 1257.01,4139.05 c 0,-10 8.1,-18.1 18.1,-18.1 10,0 18.11,8.1 18.11,18.1 0,10 -8.11,18.11 -18.11,18.11 -10,0 -18.1,-8.11 -18.1,-18.11"
         style="fill:#828887;fill-opacity:1;fill-rule:nonzero;stroke:none"
         id="path232" /><path
         d="m 1456.61,4139.05 c 0,-10 8.1,-18.1 18.1,-18.1 10,0 18.1,8.1 18.1,18.1 0,10 -8.1,18.11 -18.1,18.11 -10,0 -18.1,-8.11 -18.1,-18.11"
         style="fill:#828887;fill-opacity:1;fill-rule:nonzero;stroke:none"
         id="path234" /><path
         d="m 1656.2,4139.05 c 0,-10 8.11,-18.1 18.1,-18.1 10,0 18.11,8.1 18.11,18.1 0,10 -8.11,18.11 -18.11,18.11 -9.99,0 -18.1,-8.11 -18.1,-18.11"
         style="fill:#828887;fill-opacity:1;fill-rule:nonzero;stroke:none"
         id="path236" /><path
         d="m 1855.8,4139.05 c 0,-10 8.1,-18.1 18.1,-18.1 10,0 18.1,8.1 18.1,18.1 0,10 -8.1,18.11 -18.1,18.11 -10,0 -18.1,-8.11 -18.1,-18.11"
         style="fill:#828887;fill-opacity:1;fill-rule:nonzero;stroke:none"
         id="path238" /><path
         d="m 2055.39,4139.05 c 0,-10 8.11,-18.1 18.11,-18.1 10,0 18.1,8.1 18.1,18.1 0,10 -8.1,18.11 -18.1,18.11 -10,0 -18.11,-8.11 -18.11,-18.11"
         style="fill:#828887;fill-opacity:1;fill-rule:nonzero;stroke:none"
         id="path240" /><path
         d="m 2254.99,4139.05 c 0,-10 8.1,-18.1 18.1,-18.1 10,0 18.11,8.1 18.11,18.1 0,10 -8.11,18.11 -18.11,18.11 -10,0 -18.1,-8.11 -18.1,-18.11"
         style="fill:#828887;fill-opacity:1;fill-rule:nonzero;stroke:none"
         id="path242" /><path
         d="m 2454.58,4139.05 c 0,-10 8.11,-18.1 18.11,-18.1 10,0 18.1,8.1 18.1,18.1 0,10 -8.1,18.11 -18.1,18.11 -10,0 -18.11,-8.11 -18.11,-18.11"
         style="fill:#828887;fill-opacity:1;fill-rule:nonzero;stroke:none"
         id="path244" /><path
         d="m 2654.18,4139.05 c 0,-10 8.11,-18.1 18.11,-18.1 9.99,0 18.1,8.1 18.1,18.1 0,10 -8.11,18.11 -18.1,18.11 -10,0 -18.11,-8.11 -18.11,-18.11"
         style="fill:#828887;fill-opacity:1;fill-rule:nonzero;stroke:none"
         id="path246" /><path
         d="m 2853.77,4139.05 c 0,-10 8.11,-18.1 18.11,-18.1 10,0 18.11,8.1 18.11,18.1 0,10 -8.11,18.11 -18.11,18.11 -10,0 -18.11,-8.11 -18.11,-18.11"
         style="fill:#828887;fill-opacity:1;fill-rule:nonzero;stroke:none"
         id="path248" /><path
         d="m 3053.37,4139.05 c 0,-10 8.1,-18.1 18.1,-18.1 10,0 18.11,8.1 18.11,18.1 0,10 -8.11,18.11 -18.11,18.11 -10,0 -18.1,-8.11 -18.1,-18.11"
         style="fill:#828887;fill-opacity:1;fill-rule:nonzero;stroke:none"
         id="path250" /><path
         d="m 658.223,3968.99 c 0,-10 8.105,-18.11 18.101,-18.11 10,0 18.106,8.11 18.106,18.11 0,10 -8.106,18.1 -18.106,18.1 -9.996,0 -18.101,-8.1 -18.101,-18.1"
         style="fill:#828887;fill-opacity:1;fill-rule:nonzero;stroke:none"
         id="path252" /><path
         d="m 857.816,3968.99 c 0,-10 8.106,-18.11 18.102,-18.11 10,0 18.105,8.11 18.105,18.11 0,10 -8.105,18.1 -18.105,18.1 -9.996,0 -18.102,-8.1 -18.102,-18.1"
         style="fill:#828887;fill-opacity:1;fill-rule:nonzero;stroke:none"
         id="path254" /><path
         d="m 1057.41,3968.99 c 0,-10 8.11,-18.11 18.11,-18.11 9.99,0 18.1,8.11 18.1,18.11 0,10 -8.11,18.1 -18.1,18.1 -10,0 -18.11,-8.1 -18.11,-18.1"
         style="fill:#828887;fill-opacity:1;fill-rule:nonzero;stroke:none"
         id="path256" /><path
         d="m 1257.01,3968.99 c 0,-10 8.1,-18.11 18.1,-18.11 10,0 18.11,8.11 18.11,18.11 0,10 -8.11,18.1 -18.11,18.1 -10,0 -18.1,-8.1 -18.1,-18.1"
         style="fill:#828887;fill-opacity:1;fill-rule:nonzero;stroke:none"
         id="path258" /><path
         d="m 1456.61,3968.99 c 0,-10 8.1,-18.11 18.1,-18.11 10,0 18.1,8.11 18.1,18.11 0,10 -8.1,18.1 -18.1,18.1 -10,0 -18.1,-8.1 -18.1,-18.1"
         style="fill:#828887;fill-opacity:1;fill-rule:nonzero;stroke:none"
         id="path260" /><path
         d="m 1656.2,3968.99 c 0,-10 8.11,-18.11 18.1,-18.11 10,0 18.11,8.11 18.11,18.11 0,10 -8.11,18.1 -18.11,18.1 -9.99,0 -18.1,-8.1 -18.1,-18.1"
         style="fill:#828887;fill-opacity:1;fill-rule:nonzero;stroke:none"
         id="path262" /><path
         d="m 1855.8,3968.99 c 0,-10 8.1,-18.11 18.1,-18.11 10,0 18.1,8.11 18.1,18.11 0,10 -8.1,18.1 -18.1,18.1 -10,0 -18.1,-8.1 -18.1,-18.1"
         style="fill:#828887;fill-opacity:1;fill-rule:nonzero;stroke:none"
         id="path264" /><path
         d="m 2055.39,3968.99 c 0,-10 8.11,-18.11 18.11,-18.11 10,0 18.1,8.11 18.1,18.11 0,10 -8.1,18.1 -18.1,18.1 -10,0 -18.11,-8.1 -18.11,-18.1"
         style="fill:#828887;fill-opacity:1;fill-rule:nonzero;stroke:none"
         id="path266" /><path
         d="m 2254.99,3968.99 c 0,-10 8.1,-18.11 18.1,-18.11 10,0 18.11,8.11 18.11,18.11 0,10 -8.11,18.1 -18.11,18.1 -10,0 -18.1,-8.1 -18.1,-18.1"
         style="fill:#828887;fill-opacity:1;fill-rule:nonzero;stroke:none"
         id="path268" /><path
         d="m 2454.58,3968.99 c 0,-10 8.11,-18.11 18.11,-18.11 10,0 18.1,8.11 18.1,18.11 0,10 -8.1,18.1 -18.1,18.1 -10,0 -18.11,-8.1 -18.11,-18.1"
         style="fill:#828887;fill-opacity:1;fill-rule:nonzero;stroke:none"
         id="path270" /><path
         d="m 2654.18,3968.99 c 0,-10 8.11,-18.11 18.11,-18.11 9.99,0 18.1,8.11 18.1,18.11 0,10 -8.11,18.1 -18.1,18.1 -10,0 -18.11,-8.1 -18.11,-18.1"
         style="fill:#828887;fill-opacity:1;fill-rule:nonzero;stroke:none"
         id="path272" /><path
         d="m 2853.77,3968.99 c 0,-10 8.11,-18.11 18.11,-18.11 10,0 18.11,8.11 18.11,18.11 0,10 -8.11,18.1 -18.11,18.1 -10,0 -18.11,-8.1 -18.11,-18.1"
         style="fill:#828887;fill-opacity:1;fill-rule:nonzero;stroke:none"
         id="path274" /><path
         d="m 3053.37,3968.99 c 0,-10 8.1,-18.11 18.1,-18.11 10,0 18.11,8.11 18.11,18.11 0,10 -8.11,18.1 -18.11,18.1 -10,0 -18.1,-8.1 -18.1,-18.1"
         style="fill:#828887;fill-opacity:1;fill-rule:nonzero;stroke:none"
         id="path276" /><path
         d="m 6538.81,321.332 c 5.99,0 10.86,-4.863 10.86,-10.871 0,-5.992 -4.87,-10.859 -10.86,-10.859 -6,0 -10.86,4.867 -10.86,10.859 0,6.008 4.86,10.871 10.86,10.871"
         style="fill:#eeefee;fill-opacity:1;fill-rule:nonzero;stroke:none"
         id="path278" /><path
         d="m 6538.81,121.73 c 5.99,0 10.86,-4.859 10.86,-10.859 0,-6 -4.87,-10.871 -10.86,-10.871 -6,0 -10.86,4.871 -10.86,10.871 0,6 4.86,10.859 10.86,10.859"
         style="fill:#eeefee;fill-opacity:1;fill-rule:nonzero;stroke:none"
         id="path280" /><path
         d="m 6368.74,321.332 c 6.01,0 10.87,-4.863 10.87,-10.871 0,-5.992 -4.86,-10.859 -10.87,-10.859 -6,0 -10.86,4.867 -10.86,10.859 0,6.008 4.86,10.871 10.86,10.871"
         style="fill:#eeefee;fill-opacity:1;fill-rule:nonzero;stroke:none"
         id="path282" /><path
         d="m 6368.74,121.73 c 6.01,0 10.87,-4.859 10.87,-10.859 0,-6 -4.86,-10.871 -10.87,-10.871 -6,0 -10.86,4.871 -10.86,10.871 0,6 4.86,10.859 10.86,10.859"
         style="fill:#eeefee;fill-opacity:1;fill-rule:nonzero;stroke:none"
         id="path284" /><path
         d="m 6198.68,321.332 c 6,0 10.86,-4.863 10.86,-10.871 0,-5.992 -4.86,-10.859 -10.86,-10.859 -6,0 -10.87,4.867 -10.87,10.859 0,6.008 4.87,10.871 10.87,10.871"
         style="fill:#eeefee;fill-opacity:1;fill-rule:nonzero;stroke:none"
         id="path286" /><path
         d="m 6198.68,121.73 c 6,0 10.86,-4.859 10.86,-10.859 0,-6 -4.86,-10.871 -10.86,-10.871 -6,0 -10.87,4.871 -10.87,10.871 0,6 4.87,10.859 10.87,10.859"
         style="fill:#eeefee;fill-opacity:1;fill-rule:nonzero;stroke:none"
         id="path288" /><path
         d="m 6028.61,321.332 c 6,0 10.86,-4.863 10.86,-10.871 0,-5.992 -4.86,-10.859 -10.86,-10.859 -5.99,0 -10.86,4.867 -10.86,10.859 0,6.008 4.87,10.871 10.86,10.871"
         style="fill:#eeefee;fill-opacity:1;fill-rule:nonzero;stroke:none"
         id="path290" /><path
         d="m 6028.61,121.73 c 6,0 10.86,-4.859 10.86,-10.859 0,-6 -4.86,-10.871 -10.86,-10.871 -5.99,0 -10.86,4.871 -10.86,10.871 0,6 4.87,10.859 10.86,10.859"
         style="fill:#eeefee;fill-opacity:1;fill-rule:nonzero;stroke:none"
         id="path292" /><path
         d="m 5858.55,321.332 c 6,0 10.86,-4.863 10.86,-10.871 0,-5.992 -4.86,-10.859 -10.86,-10.859 -6,0 -10.86,4.867 -10.86,10.859 0,6.008 4.86,10.871 10.86,10.871"
         style="fill:#eeefee;fill-opacity:1;fill-rule:nonzero;stroke:none"
         id="path294" /><path
         d="m 5858.55,121.73 c 6,0 10.86,-4.859 10.86,-10.859 0,-6 -4.86,-10.871 -10.86,-10.871 -6,0 -10.86,4.871 -10.86,10.871 0,6 4.86,10.859 10.86,10.859"
         style="fill:#eeefee;fill-opacity:1;fill-rule:nonzero;stroke:none"
         id="path296" /><path
         d="m 7389.13,2516.88 c 6,0 10.86,-4.87 10.86,-10.86 0,-6 -4.86,-10.86 -10.86,-10.86 -6,0 -10.86,4.86 -10.86,10.86 0,5.99 4.86,10.86 10.86,10.86"
         style="fill:#eeefee;fill-opacity:1;fill-rule:nonzero;stroke:none"
         id="path298" /><path
         d="m 7389.13,2317.29 c 6,0 10.86,-4.87 10.86,-10.87 0,-6 -4.86,-10.86 -10.86,-10.86 -6,0 -10.86,4.86 -10.86,10.86 0,6 4.86,10.87 10.86,10.87"
         style="fill:#eeefee;fill-opacity:1;fill-rule:nonzero;stroke:none"
         id="path300" /><path
         d="m 7389.13,2117.69 c 6,0 10.86,-4.86 10.86,-10.86 0,-6 -4.86,-10.86 -10.86,-10.86 -6,0 -10.86,4.86 -10.86,10.86 0,6 4.86,10.86 10.86,10.86"
         style="fill:#eeefee;fill-opacity:1;fill-rule:nonzero;stroke:none"
         id="path302" /><path
         d="m 7389.13,1918.1 c 6,0 10.86,-4.86 10.86,-10.87 0,-6 -4.86,-10.86 -10.86,-10.86 -6,0 -10.86,4.86 -10.86,10.86 0,6.01 4.86,10.87 10.86,10.87"
         style="fill:#eeefee;fill-opacity:1;fill-rule:nonzero;stroke:none"
         id="path304" /><path
         d="m 7389.13,1718.5 c 6,0 10.86,-4.86 10.86,-10.86 0,-6.01 -4.86,-10.87 -10.86,-10.87 -6,0 -10.86,4.86 -10.86,10.87 0,6 4.86,10.86 10.86,10.86"
         style="fill:#eeefee;fill-opacity:1;fill-rule:nonzero;stroke:none"
         id="path306" /><path
         d="m 7389.13,1518.9 c 6,0 10.86,-4.86 10.86,-10.86 0,-6 -4.86,-10.86 -10.86,-10.86 -6,0 -10.86,4.86 -10.86,10.86 0,6 4.86,10.86 10.86,10.86"
         style="fill:#eeefee;fill-opacity:1;fill-rule:nonzero;stroke:none"
         id="path308" /><path
         d="m 7389.13,1319.31 c 6,0 10.86,-4.86 10.86,-10.87 0,-6 -4.86,-10.86 -10.86,-10.86 -6,0 -10.86,4.86 -10.86,10.86 0,6.01 4.86,10.87 10.86,10.87"
         style="fill:#eeefee;fill-opacity:1;fill-rule:nonzero;stroke:none"
         id="path310" /><path
         d="m 7389.13,1119.71 c 6,0 10.86,-4.86 10.86,-10.86 0,-6.01 -4.86,-10.87 -10.86,-10.87 -6,0 -10.86,4.86 -10.86,10.87 0,6 4.86,10.86 10.86,10.86"
         style="fill:#eeefee;fill-opacity:1;fill-rule:nonzero;stroke:none"
         id="path312" /><path
         d="m 7389.13,920.109 c 6,0 10.86,-4.859 10.86,-10.859 0,-6 -4.86,-10.859 -10.86,-10.859 -6,0 -10.86,4.859 -10.86,10.859 0,6 4.86,10.859 10.86,10.859"
         style="fill:#eeefee;fill-opacity:1;fill-rule:nonzero;stroke:none"
         id="path314" /><path
         d="m 7389.13,720.52 c 6,0 10.86,-4.86 10.86,-10.86 0,-6 -4.86,-10.871 -10.86,-10.871 -6,0 -10.86,4.871 -10.86,10.871 0,6 4.86,10.86 10.86,10.86"
         style="fill:#eeefee;fill-opacity:1;fill-rule:nonzero;stroke:none"
         id="path316" /><path
         d="m 7389.13,520.922 c 6,0 10.86,-4.863 10.86,-10.863 0,-5.989 -4.86,-10.86 -10.86,-10.86 -6,0 -10.86,4.871 -10.86,10.86 0,6 4.86,10.863 10.86,10.863"
         style="fill:#eeefee;fill-opacity:1;fill-rule:nonzero;stroke:none"
         id="path318" /><path
         d="m 7389.13,321.332 c 6,0 10.86,-4.863 10.86,-10.871 0,-5.992 -4.86,-10.859 -10.86,-10.859 -6,0 -10.86,4.867 -10.86,10.859 0,6.008 4.86,10.871 10.86,10.871"
         style="fill:#eeefee;fill-opacity:1;fill-rule:nonzero;stroke:none"
         id="path320" /><path
         d="m 7389.13,121.73 c 6,0 10.86,-4.859 10.86,-10.859 0,-6 -4.86,-10.871 -10.86,-10.871 -6,0 -10.86,4.871 -10.86,10.871 0,6 4.86,10.859 10.86,10.859"
         style="fill:#9E9E9E50;fill-opacity:1;fill-rule:nonzero;stroke:none"
         id="path322" /><path
         d="m 7219.06,2516.88 c 6.01,0 10.87,-4.87 10.87,-10.86 0,-6 -4.86,-10.86 -10.87,-10.86 -5.99,0 -10.86,4.86 -10.86,10.86 0,5.99 4.87,10.86 10.86,10.86"
         style="fill:#eeefee;fill-opacity:1;fill-rule:nonzero;stroke:none"
         id="path324" /><path
         d="m 7219.06,2317.29 c 6.01,0 10.87,-4.87 10.87,-10.87 0,-6 -4.86,-10.86 -10.87,-10.86 -5.99,0 -10.86,4.86 -10.86,10.86 0,6 4.87,10.87 10.86,10.87"
         style="fill:#eeefee;fill-opacity:1;fill-rule:nonzero;stroke:none"
         id="path326" /><path
         d="m 7219.06,2117.69 c 6.01,0 10.87,-4.86 10.87,-10.86 0,-6 -4.86,-10.86 -10.87,-10.86 -5.99,0 -10.86,4.86 -10.86,10.86 0,6 4.87,10.86 10.86,10.86"
         style="fill:#eeefee;fill-opacity:1;fill-rule:nonzero;stroke:none"
         id="path328" /><path
         d="m 7219.06,1918.1 c 6.01,0 10.87,-4.86 10.87,-10.87 0,-6 -4.86,-10.86 -10.87,-10.86 -5.99,0 -10.86,4.86 -10.86,10.86 0,6.01 4.87,10.87 10.86,10.87"
         style="fill:#eeefee;fill-opacity:1;fill-rule:nonzero;stroke:none"
         id="path330" /><path
         d="m 7219.06,1718.5 c 6.01,0 10.87,-4.86 10.87,-10.86 0,-6.01 -4.86,-10.87 -10.87,-10.87 -5.99,0 -10.86,4.86 -10.86,10.87 0,6 4.87,10.86 10.86,10.86"
         style="fill:#eeefee;fill-opacity:1;fill-rule:nonzero;stroke:none"
         id="path332" /><path
         d="m 7219.06,1518.9 c 6.01,0 10.87,-4.86 10.87,-10.86 0,-6 -4.86,-10.86 -10.87,-10.86 -5.99,0 -10.86,4.86 -10.86,10.86 0,6 4.87,10.86 10.86,10.86"
         style="fill:#eeefee;fill-opacity:1;fill-rule:nonzero;stroke:none"
         id="path334" /><path
         d="m 7219.06,1319.31 c 6.01,0 10.87,-4.86 10.87,-10.87 0,-6 -4.86,-10.86 -10.87,-10.86 -5.99,0 -10.86,4.86 -10.86,10.86 0,6.01 4.87,10.87 10.86,10.87"
         style="fill:#eeefee;fill-opacity:1;fill-rule:nonzero;stroke:none"
         id="path336" /><path
         d="m 7219.06,1119.71 c 6.01,0 10.87,-4.86 10.87,-10.86 0,-6.01 -4.86,-10.87 -10.87,-10.87 -5.99,0 -10.86,4.86 -10.86,10.87 0,6 4.87,10.86 10.86,10.86"
         style="fill:#eeefee;fill-opacity:1;fill-rule:nonzero;stroke:none"
         id="path338" /><path
         d="m 7219.06,920.109 c 6.01,0 10.87,-4.859 10.87,-10.859 0,-6 -4.86,-10.859 -10.87,-10.859 -5.99,0 -10.86,4.859 -10.86,10.859 0,6 4.87,10.859 10.86,10.859"
         style="fill:#eeefee;fill-opacity:1;fill-rule:nonzero;stroke:none"
         id="path340" /><path
         d="m 7219.06,720.52 c 6.01,0 10.87,-4.86 10.87,-10.86 0,-6 -4.86,-10.871 -10.87,-10.871 -5.99,0 -10.86,4.871 -10.86,10.871 0,6 4.87,10.86 10.86,10.86"
         style="fill:#eeefee;fill-opacity:1;fill-rule:nonzero;stroke:none"
         id="path342" /><path
         d="m 7219.06,520.922 c 6.01,0 10.87,-4.863 10.87,-10.863 0,-5.989 -4.86,-10.86 -10.87,-10.86 -5.99,0 -10.86,4.871 -10.86,10.86 0,6 4.87,10.863 10.86,10.863"
         style="fill:#eeefee;fill-opacity:1;fill-rule:nonzero;stroke:none"
         id="path344" /><path
         d="m 7219.06,321.332 c 6.01,0 10.87,-4.863 10.87,-10.871 0,-5.992 -4.86,-10.859 -10.87,-10.859 -5.99,0 -10.86,4.867 -10.86,10.859 0,6.008 4.87,10.871 10.86,10.871"
         style="fill:#eeefee;fill-opacity:1;fill-rule:nonzero;stroke:none"
         id="path346" /><path
         d="m 7219.06,121.73 c 6.01,0 10.87,-4.859 10.87,-10.859 0,-6 -4.86,-10.871 -10.87,-10.871 -5.99,0 -10.86,4.871 -10.86,10.871 0,6 4.87,10.859 10.86,10.859"
         style="fill:#9E9E9E50;fill-opacity:1;fill-rule:nonzero;stroke:none"
         id="path348" /><path
         d="m 7049,2516.88 c 6,0 10.86,-4.87 10.86,-10.86 0,-6 -4.86,-10.86 -10.86,-10.86 -5.99,0 -10.86,4.86 -10.86,10.86 0,5.99 4.87,10.86 10.86,10.86"
         style="fill:#eeefee;fill-opacity:1;fill-rule:nonzero;stroke:none"
         id="path350" /><path
         d="m 7049,2317.29 c 6,0 10.86,-4.87 10.86,-10.87 0,-6 -4.86,-10.86 -10.86,-10.86 -5.99,0 -10.86,4.86 -10.86,10.86 0,6 4.87,10.87 10.86,10.87"
         style="fill:#eeefee;fill-opacity:1;fill-rule:nonzero;stroke:none"
         id="path352" /><path
         d="m 7049,2117.69 c 6,0 10.86,-4.86 10.86,-10.86 0,-6 -4.86,-10.86 -10.86,-10.86 -5.99,0 -10.86,4.86 -10.86,10.86 0,6 4.87,10.86 10.86,10.86"
         style="fill:#eeefee;fill-opacity:1;fill-rule:nonzero;stroke:none"
         id="path354" /><path
         d="m 7049,1918.1 c 6,0 10.86,-4.86 10.86,-10.87 0,-6 -4.86,-10.86 -10.86,-10.86 -5.99,0 -10.86,4.86 -10.86,10.86 0,6.01 4.87,10.87 10.86,10.87"
         style="fill:#eeefee;fill-opacity:1;fill-rule:nonzero;stroke:none"
         id="path356" /><path
         d="m 7049,1718.5 c 6,0 10.86,-4.86 10.86,-10.86 0,-6.01 -4.86,-10.87 -10.86,-10.87 -5.99,0 -10.86,4.86 -10.86,10.87 0,6 4.87,10.86 10.86,10.86"
         style="fill:#eeefee;fill-opacity:1;fill-rule:nonzero;stroke:none"
         id="path358" /><path
         d="m 7049,1518.9 c 6,0 10.86,-4.86 10.86,-10.86 0,-6 -4.86,-10.86 -10.86,-10.86 -5.99,0 -10.86,4.86 -10.86,10.86 0,6 4.87,10.86 10.86,10.86"
         style="fill:#eeefee;fill-opacity:1;fill-rule:nonzero;stroke:none"
         id="path360" /><path
         d="m 7049,1319.31 c 6,0 10.86,-4.86 10.86,-10.87 0,-6 -4.86,-10.86 -10.86,-10.86 -5.99,0 -10.86,4.86 -10.86,10.86 0,6.01 4.87,10.87 10.86,10.87"
         style="fill:#eeefee;fill-opacity:1;fill-rule:nonzero;stroke:none"
         id="path362" /><path
         d="m 7049,1119.71 c 6,0 10.86,-4.86 10.86,-10.86 0,-6.01 -4.86,-10.87 -10.86,-10.87 -5.99,0 -10.86,4.86 -10.86,10.87 0,6 4.87,10.86 10.86,10.86"
         style="fill:#eeefee;fill-opacity:1;fill-rule:nonzero;stroke:none"
         id="path364" /><path
         d="m 7049,920.109 c 6,0 10.86,-4.859 10.86,-10.859 0,-6 -4.86,-10.859 -10.86,-10.859 -5.99,0 -10.86,4.859 -10.86,10.859 0,6 4.87,10.859 10.86,10.859"
         style="fill:#eeefee;fill-opacity:1;fill-rule:nonzero;stroke:none"
         id="path366" /><path
         d="m 7049,720.52 c 6,0 10.86,-4.86 10.86,-10.86 0,-6 -4.86,-10.871 -10.86,-10.871 -5.99,0 -10.86,4.871 -10.86,10.871 0,6 4.87,10.86 10.86,10.86"
         style="fill:#eeefee;fill-opacity:1;fill-rule:nonzero;stroke:none"
         id="path368" /><path
         d="m 7049,520.922 c 6,0 10.86,-4.863 10.86,-10.863 0,-5.989 -4.86,-10.86 -10.86,-10.86 -5.99,0 -10.86,4.871 -10.86,10.86 0,6 4.87,10.863 10.86,10.863"
         style="fill:#eeefee;fill-opacity:1;fill-rule:nonzero;stroke:none"
         id="path370" /><path
         d="m 7049,321.332 c 6,0 10.86,-4.863 10.86,-10.871 0,-5.992 -4.86,-10.859 -10.86,-10.859 -5.99,0 -10.86,4.867 -10.86,10.859 0,6.008 4.87,10.871 10.86,10.871"
         style="fill:#eeefee;fill-opacity:1;fill-rule:nonzero;stroke:none"
         id="path372" /><path
         d="m 7049,121.73 c 6,0 10.86,-4.859 10.86,-10.859 0,-6 -4.86,-10.871 -10.86,-10.871 -5.99,0 -10.86,4.871 -10.86,10.871 0,6 4.87,10.859 10.86,10.859"
         style="fill:#eeefee;fill-opacity:1;fill-rule:nonzero;stroke:none"
         id="path374" /><path
         d="m 6878.94,321.332 c 6,0 10.86,-4.863 10.86,-10.871 0,-5.992 -4.86,-10.859 -10.86,-10.859 -6,0 -10.86,4.867 -10.86,10.859 0,6.008 4.86,10.871 10.86,10.871"
         style="fill:#eeefee;fill-opacity:1;fill-rule:nonzero;stroke:none"
         id="path376" /><path
         d="m 6878.94,121.73 c 6,0 10.86,-4.859 10.86,-10.859 0,-6 -4.86,-10.871 -10.86,-10.871 -6,0 -10.86,4.871 -10.86,10.871 0,6 4.86,10.859 10.86,10.859"
         style="fill:#eeefee;fill-opacity:1;fill-rule:nonzero;stroke:none"
         id="path378" /><path
         d="m 6708.88,321.332 c 5.99,0 10.86,-4.863 10.86,-10.871 0,-5.992 -4.87,-10.859 -10.86,-10.859 -6.01,0 -10.87,4.867 -10.87,10.859 0,6.008 4.86,10.871 10.87,10.871"
         style="fill:#eeefee;fill-opacity:1;fill-rule:nonzero;stroke:none"
         id="path380" /><path
         d="m 6708.88,121.73 c 5.99,0 10.86,-4.859 10.86,-10.859 0,-6 -4.87,-10.871 -10.86,-10.871 -6.01,0 -10.87,4.871 -10.87,10.871 0,6 4.86,10.859 10.87,10.859"
         style="fill:#eeefee;fill-opacity:1;fill-rule:nonzero;stroke:none"
         id="path382" /><path
         d="m 5688.49,321.332 c 5.99,0 10.86,-4.863 10.86,-10.871 0,-5.992 -4.87,-10.859 -10.86,-10.859 -6,0 -10.86,4.867 -10.86,10.859 0,6.008 4.86,10.871 10.86,10.871"
         style="fill:#eeefee;fill-opacity:1;fill-rule:nonzero;stroke:none"
         id="path384" /><path
         d="m 5688.49,121.73 c 5.99,0 10.86,-4.859 10.86,-10.859 0,-6 -4.87,-10.871 -10.86,-10.871 -6,0 -10.86,4.871 -10.86,10.871 0,6 4.86,10.859 10.86,10.859"
         style="fill:#eeefee;fill-opacity:1;fill-rule:nonzero;stroke:none"
         id="path386" /><path
         d="m 5968.93,3759.6 c -135.95,0 -246.56,110.61 -246.56,246.56 0,135.94 110.61,246.55 246.56,246.55 135.93,0 246.54,-110.61 246.54,-246.55 0,-135.95 -110.61,-246.56 -246.54,-246.56 z m 0,513.3 c -147.09,0 -266.75,-119.65 -266.75,-266.74 0,-147.08 119.66,-266.75 266.75,-266.75 147.08,0 266.73,119.67 266.73,266.75 0,147.09 -119.65,266.74 -266.73,266.74"
         style="fill:#eeefee;fill-opacity:1;fill-rule:nonzero;stroke:none"
         id="path388" /><path
         d="m 5968.93,3904.38 c -56.13,0 -101.78,45.66 -101.78,101.78 0,56.12 45.65,101.77 101.78,101.77 56.11,0 101.76,-45.65 101.76,-101.77 0,-56.12 -45.65,-101.78 -101.76,-101.78 z m 0,223.75 c -67.27,0 -121.98,-54.71 -121.98,-121.97 0,-67.26 54.71,-121.98 121.98,-121.98 67.25,0 121.97,54.72 121.97,121.98 0,67.26 -54.72,121.97 -121.97,121.97"
         style="fill:#eeefee;fill-opacity:1;fill-rule:nonzero;stroke:none"
         id="path390" /><path
         d="m 911.809,2201.6 -42.629,67.15 -42.625,-67.15 z"
         style="fill:#828887;fill-opacity:1;fill-rule:nonzero;stroke:none"
         id="path392" /><path
         d="m 911.809,1854.5 -42.629,67.15 -42.625,-67.15 z"
         style="fill:#828887;fill-opacity:1;fill-rule:nonzero;stroke:none"
         id="path394" /><path
         d="m 911.809,3018.25 -42.629,67.15 -42.625,-67.15 z"
         style="fill:#828887;fill-opacity:1;fill-rule:nonzero;stroke:none"
         id="path396" /><path
         d="m 911.809,2671.15 -42.629,67.15 -42.625,-67.15 z"
         style="fill:#828887;fill-opacity:1;fill-rule:nonzero;stroke:none"
         id="path398" /><path
         d="m 911.809,2524.06 -42.629,67.15 -42.625,-67.15 z"
         style="fill:#828887;fill-opacity:1;fill-rule:nonzero;stroke:none"
         id="path400" /><path
         d="m 7041.71,4731.16 -67.16,-42.62 67.16,-42.63 z"
         style="fill:#20A8FF;fill-opacity:1;fill-rule:nonzero;stroke:none"
         id="path402" /><path
         d="m 7388.81,4731.16 -67.15,-42.62 67.15,-42.63 z"
         style="fill:#20A8FF;fill-opacity:1;fill-rule:nonzero;stroke:none"
         id="path404" /><path
         d="m 6225.06,4731.16 -67.15,-42.62 67.15,-42.63 z"
         style="fill:#20A8FF;fill-opacity:1;fill-rule:nonzero;stroke:none"
         id="path406" /><path
         d="m 6572.16,4731.16 -67.15,-42.62 67.15,-42.63 z"
         style="fill:#20A8FF;fill-opacity:1;fill-rule:nonzero;stroke:none"
         id="path408" /><path
         d="m 6719.26,4731.16 -67.16,-42.62 67.16,-42.63 z"
         style="fill:#20A8FF;fill-opacity:1;fill-rule:nonzero;stroke:none"
         id="path410" /><path
         d="m 851.523,1476.97 c -0.246,9.09 6.879,16.62 15.883,16.85 v 0 c 9.082,0.26 16.617,-6.79 16.856,-15.87 v 0 c 0.332,-9.01 -6.785,-16.54 -15.879,-16.86 v 0 c -0.16,0 -0.324,0 -0.488,0 v 0 c -8.836,0 -16.043,7.04 -16.372,15.88 z m 80.79,-17.6 c -9,0.82 -15.711,8.68 -14.977,17.67 v 0 c 0.738,9.1 8.676,15.73 17.684,14.98 v 0 c 9.003,-0.73 15.71,-8.67 14.98,-17.67 v 0 c -0.738,-8.52 -7.945,-14.98 -16.371,-14.98 v 0 c -0.41,0 -0.899,0 -1.316,0 z m -146.114,10.07 c -1.222,9 4.914,17.26 13.918,18.57 v 0 0 0 c 8.922,1.32 17.27,-4.9 18.5,-13.92 v 0 c 1.309,-8.91 -4.91,-17.18 -13.836,-18.49 v 0 c -0.812,-0.08 -1.554,-0.16 -2.375,-0.16 v 0 c -8.019,0 -14.972,5.89 -16.207,14 z m 209.313,-18.92 v -0.08 c -8.84,1.8 -14.574,10.48 -12.856,19.33 v 0 c 1.801,8.84 10.395,14.65 19.324,12.84 v 0 c 8.84,-1.8 14.57,-10.39 12.85,-19.23 v 0 c -1.56,-7.78 -8.43,-13.18 -16.045,-13.18 v 0 c -1.066,0 -2.125,0.09 -3.273,0.32 z m -273.321,4.01 c -2.289,8.76 2.868,17.69 11.622,19.98 v 0 c 8.761,2.38 17.679,-2.87 20.058,-11.62 v 0 c 2.289,-8.77 -2.949,-17.68 -11.707,-19.98 v 0 c -1.394,-0.41 -2.785,-0.57 -4.176,-0.57 v 0 c -7.285,0 -13.918,4.91 -15.797,12.19 z m 335.199,-20.13 c -8.59,2.78 -13.34,12.03 -10.55,20.63 v 0 c 2.78,8.6 12.03,13.34 20.62,10.56 v 0 0 0 c 8.59,-2.78 13.35,-12.03 10.56,-20.63 v 0 c -2.29,-6.96 -8.67,-11.37 -15.63,-11.37 v 0 c -1.64,0 -3.36,0.23 -5,0.81 z m -397.163,-2.04 c -3.274,8.42 0.902,17.93 9.328,21.2 v 0 c 8.351,3.27 17.847,-0.82 21.203,-9.26 v 0 c 3.273,-8.43 -0.903,-17.92 -9.332,-21.19 v 0 c -1.961,-0.82 -3.93,-1.14 -5.977,-1.14 v 0 c -6.543,0 -12.683,3.91 -15.222,10.39 z m 456.753,-21.05 c -8.26,3.77 -11.86,13.43 -8.1,21.7 v 0 c 3.77,8.18 13.42,11.87 21.61,8.11 v 0 c 0,0 0,0 0.09,0 v 0 c 8.18,-3.77 11.86,-13.43 8.1,-21.7 v 0 c -2.79,-6.06 -8.76,-9.57 -14.9,-9.57 v 0 c -2.29,0 -4.59,0.48 -6.8,1.46 z m -515.691,-8.09 c -4.258,8.01 -1.226,17.92 6.793,22.1 v 0 c 7.941,4.25 17.848,1.23 22.106,-6.71 v 0 c 4.253,-8.03 1.222,-17.93 -6.793,-22.19 v 0 c -2.461,-1.31 -5.079,-1.89 -7.618,-1.89 v 0 c -5.89,0 -11.543,3.11 -14.488,8.69 z m 572.261,-21.7 h -0.08 c -7.7,4.66 -10.24,14.73 -5.57,22.51 v 0 c 4.66,7.7 14.73,10.23 22.51,5.56 v 0 c 7.7,-4.66 10.23,-14.72 5.57,-22.51 v 0 c -3.03,-5.08 -8.52,-7.94 -14.08,-7.94 v 0 c -2.87,0 -5.73,0.82 -8.35,2.38 z m -627.515,-14 c -5.156,7.45 -3.269,17.69 4.176,22.77 v 0 c 7.445,5.15 17.68,3.26 22.84,-4.19 v 0 c 5.07,-7.44 3.187,-17.67 -4.258,-22.75 v 0 c -2.863,-1.97 -6.059,-2.95 -9.25,-2.95 v 0 c -5.234,0 -10.313,2.54 -13.508,7.12 z m 680.225,-22.02 c -7.12,5.49 -8.51,15.8 -2.94,22.93 v 0 c 5.48,7.2 15.8,8.51 22.92,3.03 v 0 c 7.2,-5.5 8.51,-15.8 3.03,-22.93 v 0 c -3.28,-4.25 -8.11,-6.38 -13.02,-6.38 v 0 c -3.44,0 -6.96,1.07 -9.99,3.35 z m -731.061,-19.72 c -5.969,6.88 -5.238,17.18 1.559,23.17 v 0 c 0,0 0,0 0,-0.09 v 0 c 6.875,5.98 17.191,5.24 23.086,-1.55 v 0 c 5.976,-6.8 5.234,-17.11 -1.559,-23.09 v 0 c -3.109,-2.7 -6.957,-4.01 -10.722,-4.01 v 0 c -4.583,0 -9.165,1.88 -12.364,5.57 z m 779.441,-22.03 c -6.47,6.22 -6.63,16.62 -0.32,23.09 v 0 c 6.21,6.55 16.61,6.71 23.08,0.41 v 0 c 6.55,-6.31 6.71,-16.7 0.4,-23.17 v 0 c -3.19,-3.28 -7.53,-5 -11.78,-5 v 0 c -4.1,0 -8.19,1.57 -11.38,4.67 z m -825.281,-25.12 c -6.629,6.05 -7.117,16.45 -0.98,23.08 v 0 0 0 c 6.059,6.71 16.457,7.12 23.086,1.07 v 0 c 6.711,-6.15 7.125,-16.54 1.062,-23.17 v 0 c -3.273,-3.52 -7.691,-5.32 -12.113,-5.32 v 0 c -3.93,0 -7.941,1.4 -11.055,4.34 z m 868.581,-21.86 c -5.73,6.96 -4.74,17.28 2.29,23.01 v 0 c 6.96,5.73 17.27,4.74 23.01,-2.22 v 0 c 5.72,-7.03 4.74,-17.35 -2.21,-23.07 v 0 c -3.11,-2.47 -6.8,-3.7 -10.4,-3.7 v 0 c -4.75,0 -9.41,2.05 -12.69,5.98 z m -908.686,-30.29 c -7.367,5.33 -9.004,15.55 -3.688,22.84 v 0 c 5.329,7.37 15.555,8.92 22.926,3.68 v 0 c 7.285,-5.31 8.918,-15.55 3.598,-22.91 v 0 c -3.195,-4.42 -8.184,-6.72 -13.262,-6.72 v 0 c -3.348,0 -6.711,0.99 -9.574,3.11 z M 1355.6,1205.2 c -4.91,7.53 -2.7,17.68 4.91,22.6 v 0 c 7.61,4.91 17.68,2.69 22.59,-4.84 v 0 c 4.91,-7.61 2.78,-17.76 -4.83,-22.66 v 0 c -2.78,-1.81 -5.81,-2.63 -8.84,-2.63 v 0 c -5.4,0 -10.64,2.63 -13.83,7.53 z m -980.401,-35.12 c -7.855,4.5 -10.636,14.49 -6.136,22.35 v 0 0 0 c 4.417,7.87 14.406,10.65 22.265,6.23 v 0 c 7.856,-4.43 10.641,-14.41 6.215,-22.27 v -0.09 c -3.023,-5.31 -8.59,-8.26 -14.32,-8.26 v 0 c -2.7,0 -5.485,0.65 -8.024,2.04 z M 1387.2,1149.62 c -4.02,8.11 -0.74,17.93 7.36,21.94 v 0 c 8.1,4.01 17.93,0.74 21.94,-7.37 v 0 c 0,0 0,0 0,-0.08 v 0 c 4.01,-8.1 0.74,-17.85 -7.37,-21.85 v 0 c -2.37,-1.15 -4.83,-1.73 -7.28,-1.73 v 0 c -5.98,0 -11.79,3.36 -14.65,9.09 z M 347.945,1110.25 c -8.351,3.52 -12.281,13.09 -8.761,21.45 v 0 c 3.519,8.34 13.179,12.28 21.445,8.75 v 0 c 8.351,-3.51 12.281,-13.17 8.762,-21.44 v 0 c -2.618,-6.3 -8.676,-10.07 -15.067,-10.07 v 0 c -2.129,0 -4.336,0.41 -6.379,1.31 z m 1064.215,-19.4 c -3.03,8.52 1.39,17.92 9.91,20.95 v 0 c 8.51,3.03 17.84,-1.39 20.95,-9.9 v 0 c 3.03,-8.52 -1.39,-17.84 -9.9,-20.87 v 0 c -1.81,-0.66 -3.69,-0.99 -5.57,-0.99 v 0 c -6.72,0 -12.94,4.17 -15.39,10.81 z M 327.641,1047.63 c -8.676,2.54 -13.586,11.62 -11.133,20.3 v 0 c 2.625,8.67 11.711,13.67 20.305,11.13 v 0 c 8.757,-2.53 13.667,-11.63 11.21,-20.3 v 0 c -2.125,-7.12 -8.675,-11.78 -15.796,-11.78 v 0 c -1.473,0 -3.028,0.24 -4.586,0.65 z m 1102.609,-18.01 c -2.05,8.76 3.44,17.6 12.28,19.65 v 0 c 8.75,2.04 17.6,-3.44 19.64,-12.21 v 0 c 2.05,-8.83 -3.43,-17.58 -12.19,-19.64 v 0 c -1.31,-0.32 -2.54,-0.49 -3.76,-0.49 v 0 c -7.46,0 -14.17,5.15 -15.97,12.69 z M 314.789,983.129 c -8.922,1.551 -14.894,9.98 -13.422,18.901 v 0 0 0 c 1.559,8.93 9.985,14.9 18.906,13.43 v 0 c 8.926,-1.56 14.903,-9.99 13.344,-18.909 v 0 c -1.308,-8.02 -8.265,-13.68 -16.129,-13.68 v 0 c -0.894,0 -1.8,0.09 -2.699,0.258 z M 1441.22,966.672 c -1.06,9.008 5.4,17.109 14.41,18.18 v 0 c 9,0.968 17.1,-5.411 18.09,-14.411 v 0 0 0 c 1.06,-9.011 -5.32,-17.109 -14.33,-18.089 v 0 c -0.65,-0.09 -1.31,-0.172 -1.88,-0.172 v 0 c -8.27,0 -15.31,6.14 -16.29,14.492 z M 309.223,917.559 c -9.004,0.57 -15.879,8.261 -15.391,17.273 v 0 c 0.492,9.09 8.188,15.957 17.191,15.477 v 0 c 9.09,-0.5 15.965,-8.289 15.477,-17.278 v 0 c -0.492,-8.672 -7.695,-15.472 -16.371,-15.472 v 0 c -0.25,0 -0.578,0 -0.906,0 z M 1444.98,901.672 c 0,0.258 0,0.41 0,0.66 v 0 c 0,0.168 0,0.328 0,0.566 v 0 c -0.08,9.012 7.29,16.383 16.29,16.383 v 0 c 9.09,0 16.38,-7.293 16.45,-16.383 v 0 c 0,-0.16 0,-0.398 0,-0.566 v 0 c 0,-0.25 0,-0.402 0,-0.66 v 0 c 0,-8.992 -7.36,-16.363 -16.37,-16.363 v 0 c -9.08,0 -16.37,7.371 -16.37,16.363 z M 293.832,867.301 c 0,0 0,0 0,-0.082 v 0 c -0.488,9.082 6.387,16.781 15.477,17.351 v 0 c 9.004,0.489 16.699,-6.379 17.269,-15.468 v 0 c 0.492,-9.012 -6.383,-16.692 -15.387,-17.27 v 0 c -0.332,0 -0.66,0 -0.988,0 v 0 c -8.594,0 -15.793,6.707 -16.371,15.469 z M 1455.79,819.82 c -9,0.981 -15.47,9.09 -14.41,18.09 v 0 c 0.98,9.012 9.09,15.379 18.09,14.41 v 0 c 9.01,-0.98 15.47,-9.16 14.41,-18.101 v 0 c -0.9,-8.34 -8.02,-14.559 -16.21,-14.559 v 0 c -0.65,0 -1.22,0.082 -1.88,0.16 z M 301.609,800.09 c -1.55,8.93 4.426,17.351 13.348,18.922 v 0 c 8.922,1.547 17.352,-4.43 18.906,-13.34 v 0 c 1.559,-8.942 -4.422,-17.371 -13.34,-18.922 v 0 c -0.984,-0.168 -1.886,-0.25 -2.789,-0.25 v 0 c -7.855,0 -14.808,5.648 -16.125,13.59 z M 1442.78,755.32 c -8.77,2.051 -14.25,10.809 -12.2,19.641 v 0 c 2.04,8.758 10.8,14.238 19.64,12.199 v 0 c 8.76,-1.961 14.25,-10.801 12.2,-19.648 v 0 c -1.72,-7.532 -8.43,-12.602 -15.88,-12.602 v 0 c -1.23,0 -2.46,0.078 -3.76,0.41 z M 316.918,734.199 c -2.531,8.68 2.379,17.762 11.051,20.301 v 0 c 8.676,2.609 17.761,-2.371 20.386,-11.051 v 0 c 2.536,-8.668 -2.457,-17.758 -11.132,-20.301 v 0 c -1.559,-0.488 -3.118,-0.66 -4.586,-0.66 v 0 c -7.125,0 -13.59,4.582 -15.719,11.711 z m 1105.552,-41.5 c -8.51,3.031 -12.93,12.36 -9.9,20.961 v 0 c 3.03,8.512 12.44,12.922 20.96,9.899 v 0 c 8.51,-3.028 12.93,-12.438 9.9,-20.957 v 0 c -2.38,-6.711 -8.68,-10.883 -15.39,-10.883 v 0 c -1.88,0 -3.68,0.32 -5.57,0.98 z M 339.672,670.512 c -3.52,8.347 0.41,17.929 8.683,21.527 v 0 c 8.348,3.441 17.922,-0.41 21.524,-8.758 v 0 c 3.523,-8.261 -0.406,-17.929 -8.758,-21.441 v 0 c -2.043,-0.91 -4.258,-1.309 -6.387,-1.309 v 0 c -6.3,0 -12.355,3.758 -15.062,9.981 z M 1395.13,632.859 c -8.1,4.02 -11.46,13.75 -7.45,21.942 v 0 c 4.01,8.097 13.84,11.371 21.94,7.449 v 0 c 8.11,-4.008 11.46,-13.828 7.45,-21.93 v 0 0 0 c -2.87,-5.828 -8.68,-9.172 -14.74,-9.172 v 0 c -2.37,0 -4.82,0.571 -7.2,1.711 z M 369.633,609.941 c -4.5,7.86 -1.719,17.848 6.144,22.27 v 0 c 7.856,4.488 17.84,1.719 22.344,-6.141 v 0 c 4.422,-7.859 1.637,-17.84 -6.141,-22.269 v 0 c -2.621,-1.469 -5.402,-2.219 -8.101,-2.219 v 0 c -5.731,0 -11.219,3.039 -14.246,8.359 z m 991.447,-33.39 c -7.61,4.898 -9.74,14.98 -4.83,22.578 v 0 c 4.83,7.613 14.98,9.832 22.6,4.93 v 0 c 7.61,-4.93 9.82,-15.071 4.9,-22.61 v 0 c -3.11,-4.898 -8.43,-7.527 -13.83,-7.527 v 0 c -3.03,0 -6.05,0.828 -8.84,2.629 z M 406.309,553.129 c -5.325,7.293 -3.766,17.531 3.515,22.84 v 0 c 7.371,5.32 17.602,3.761 22.926,-3.59 v 0 c 5.316,-7.297 3.676,-17.527 -3.605,-22.848 v 0 c -2.95,-2.133 -6.301,-3.109 -9.657,-3.109 v 0 c -4.996,0 -9.992,2.289 -13.179,6.707 z m 914.581,-28.731 c -6.96,5.731 -8.02,16.043 -2.29,23.082 v 0 c 5.73,6.969 16.04,8.02 23.08,2.29 v 0 c 6.96,-5.719 8.02,-16.04 2.29,-23.079 v 0 c -3.27,-3.921 -7.93,-5.972 -12.68,-5.972 v 0 c -3.6,0 -7.29,1.23 -10.4,3.679 z M 449.117,500.82 c -6.137,6.629 -5.644,17.032 0.985,23.18 v 0 c 6.628,6.051 17.023,5.641 23.082,-1.07 v 0 c 6.136,-6.641 5.734,-16.95 -0.899,-23.078 v 0 c -3.191,-2.86 -7.125,-4.352 -11.137,-4.352 v 0 c -4.418,0 -8.753,1.809 -12.031,5.32 z m 825.933,-23.57 c -6.3,6.469 -6.14,16.859 0.33,23.172 v 0 c 6.54,6.297 16.86,6.137 23.16,-0.332 v 0 c 6.31,-6.461 6.14,-16.86 -0.32,-23.16 v 0 c -3.2,-3.121 -7.29,-4.668 -11.38,-4.668 v 0 c -4.26,0 -8.51,1.718 -11.79,4.988 z M 497.656,453.672 c -6.875,5.976 -7.605,16.289 -1.636,23.18 v 0 c 5.894,6.789 16.21,7.527 23.085,1.628 v 0 c 6.793,-5.898 7.532,-16.289 1.637,-23.089 v 0 c -3.269,-3.762 -7.777,-5.641 -12.363,-5.641 v 0 c -3.844,0 -7.609,1.309 -10.723,3.922 z M 1224.22,435.59 c -5.57,7.121 -4.26,17.43 2.94,22.922 v 0 c 7.13,5.57 17.44,4.25 22.93,-2.953 v 0 c 5.56,-7.118 4.25,-17.43 -2.96,-22.918 v 0 c -2.94,-2.371 -6.46,-3.442 -9.98,-3.442 v 0 c -4.91,0 -9.74,2.211 -12.93,6.391 z M 551.191,412.422 c -7.445,5.078 -9.332,15.308 -4.257,22.758 v 0 c 5.078,7.441 15.308,9.332 22.757,4.261 v 0 c 7.454,-5.082 9.332,-15.32 4.258,-22.769 v 0 c -3.191,-4.582 -8.269,-7.121 -13.504,-7.121 v 0 c -3.195,0 -6.386,0.91 -9.254,2.871 z m 617.689,-12.524 c -4.67,7.782 -2.13,17.84 5.57,22.512 v 0 c 7.78,4.66 17.84,2.199 22.51,-5.48 v 0 c 4.66,-7.789 2.13,-17.848 -5.57,-22.508 v 0 0 0 c -2.62,-1.641 -5.56,-2.383 -8.43,-2.383 v 0 c -5.57,0 -10.97,2.781 -14.08,7.859 z M 609.145,377.461 v 0 0 c -8.024,4.269 -11.047,14.168 -6.875,22.109 v 0 c 4.257,8.02 14.16,11.141 22.101,6.879 v 0 c 8.027,-4.258 11.051,-14.16 6.879,-22.109 v 0 c -2.945,-5.559 -8.676,-8.75 -14.488,-8.75 v 0 c -2.621,0 -5.242,0.57 -7.617,1.871 z m 500.805,-6.621 c -3.77,8.262 -0.17,17.922 8.1,21.68 v 0 c 8.19,3.769 17.92,0.179 21.69,-8.02 v 0 c 3.77,-8.262 0.08,-17.918 -8.1,-21.762 v 0 c -2.21,-0.988 -4.5,-1.476 -6.8,-1.476 v 0 c -6.22,0 -12.11,3.597 -14.89,9.578 z M 670.625,349.391 c -8.352,3.269 -12.527,12.769 -9.336,21.199 v 0 c 3.359,8.441 12.77,12.609 21.285,9.332 h -0.086 c 8.434,-3.274 12.61,-12.774 9.332,-21.203 v 0 c -2.449,-6.457 -8.675,-10.477 -15.222,-10.477 v 0 c -1.965,0 -4.016,0.418 -5.973,1.149 z m 377.355,-0.661 c -2.78,8.602 1.97,17.852 10.48,20.629 h 0.08 c 8.59,2.789 17.76,-1.949 20.63,-10.558 v 0 c 2.78,-8.59 -1.97,-17.84 -10.56,-20.621 v 0 0 0 c -1.64,-0.489 -3.36,-0.739 -5.07,-0.739 v 0 c -6.88,0 -13.27,4.34 -15.56,11.289 z M 735.039,328.52 v 0 0 c -8.754,2.281 -13.992,11.222 -11.699,19.972 v 0 c 2.289,8.758 11.211,13.988 19.973,11.707 v 0 c 8.753,-2.301 13.996,-11.211 11.707,-19.969 v 0 c -1.969,-7.378 -8.598,-12.289 -15.801,-12.289 v 0 c -1.391,0 -2.781,0.258 -4.18,0.579 z m 248.848,5.32 c -1.719,8.84 4.008,17.519 12.851,19.242 v 0 c 8.842,1.797 17.522,-3.941 19.312,-12.773 v 0 c 1.72,-8.848 -4,-17.52 -12.85,-19.317 v 0 c -1.06,-0.172 -2.13,-0.32 -3.266,-0.32 v 0 c -7.614,0 -14.411,5.387 -16.047,13.168 z M 801.348,315.18 c -9.008,1.3 -15.227,9.582 -13.914,18.492 v 0 c 1.304,9.008 9.574,15.23 18.496,13.918 v 0 c 8.918,-1.231 15.144,-9.488 13.918,-18.508 v 0 c -1.149,-8.184 -8.188,-14.07 -16.211,-14.07 v 0 c -0.739,0 -1.551,0.078 -2.289,0.168 z m 117.215,11.211 c -0.735,9 5.894,16.859 14.898,17.679 v 0 c 9.004,0.828 16.945,-5.89 17.766,-14.898 v 0 c 0.738,-9 -5.977,-16.942 -14.981,-17.762 v 0 c 0,0 0,0 0,0.09 v 0 c -0.41,-0.09 -0.898,-0.09 -1.391,-0.09 v 0 c -8.429,0 -15.554,6.461 -16.292,14.981 z M 868.711,309.52 c -9.082,0.261 -16.207,7.789 -15.879,16.781 v 0 c 0.25,9.09 7.777,16.219 16.781,15.969 v 0 c 9.004,-0.25 16.129,-7.778 15.883,-16.86 v 0 c -0.246,-8.84 -7.531,-15.89 -16.371,-15.89 v 0 c -0.164,0 -0.246,0 -0.414,0"
         style="fill:#e2e2e0;fill-opacity:1;fill-rule:nonzero;stroke:none"
         id="path412" /><path
         d="M 5359.41,4216.12 H 4575.54 V 5000 h 783.87 v -783.88"
         style="fill:#1c1c1e;fill-opacity:1;fill-rule:nonzero;stroke:none"
         id="path414" /><path
         d="m 4680.54,4321.12 h 573.87 V 4895 h -573.87 z m 583.87,-10 H 4670.54 V 4905 h 593.87 v -593.88"
         style="fill:#20A8FF;fill-opacity:1;fill-rule:nonzero;stroke:none"
         id="path416" /><path
         d="m 4580.53,4221.11 h 573.87 v 573.88 h -573.87 z m 583.87,-10 h -593.87 v 593.88 h 593.87 v -593.88"
         style="fill:#20A8FF;fill-opacity:1;fill-rule:nonzero;stroke:none"
         id="path418" /><path
         d="m 7109.8,1587.29 c -578.81,0 -1049.71,-470.9 -1049.71,-1049.72 0,-578.82 470.9,-1049.718 1049.71,-1049.718 578.81,0 1049.71,470.898 1049.71,1049.718 0,578.82 -470.9,1049.72 -1049.71,1049.72 z m 0,-2109.438 c -584.32,0 -1059.71,475.3902 -1059.71,1059.718 0,584.33 475.39,1059.72 1059.71,1059.72 584.33,0 1059.71,-475.39 1059.71,-1059.72 0,-584.3278 -475.38,-1059.718 -1059.71,-1059.718"
         style="fill:#20A8FF;fill-opacity:1;fill-rule:nonzero;stroke:none"
         id="path420" /><path
         d="M 2291.2,4939.28 H 0 V 5000 h 2291.2 v -60.72"
         style="fill:#20A8FF;fill-opacity:1;fill-rule:nonzero;stroke:none"
         id="path422" /><path
         d="M 5861.66,590.512 V 732.281 H 5719.88 V 590.512 Z m 7.5,149.269 V 583.012 h -156.78 v 156.769 h 156.78"
         style="fill:#e2e2e0;fill-opacity:1;fill-rule:nonzero;stroke:none"
         id="path424" /><path
         d="M 5712.38,739.781 V 881.559 H 5570.62 V 739.781 Z m 7.5,149.278 V 732.281 h -156.76 v 156.778 h 156.76"
         style="fill:#e2e2e0;fill-opacity:1;fill-rule:nonzero;stroke:none"
         id="path426" /><path
         d="M 5712.38,889.059 V 1030.82 H 5570.62 V 889.059 Z m 7.5,149.261 V 881.559 h -156.76 v 156.761 h 156.76"
         style="fill:#e2e2e0;fill-opacity:1;fill-rule:nonzero;stroke:none"
         id="path428" /><path
         d="M 5563.12,739.781 V 881.559 H 5421.35 V 739.781 Z m 7.5,149.278 V 732.281 h -156.77 v 156.778 h 156.77"
         style="fill:#e2e2e0;fill-opacity:1;fill-rule:nonzero;stroke:none"
         id="path430" /><path
         d="M 5861.66,739.781 V 881.559 H 5719.88 V 739.781 Z m 7.5,149.278 V 732.281 h -156.78 v 156.778 h 156.78"
         style="fill:#e2e2e0;fill-opacity:1;fill-rule:nonzero;stroke:none"
         id="path432" /><path
         d="M 5861.66,889.059 V 1030.82 H 5719.88 V 889.059 Z m 7.5,149.261 V 881.559 h -156.78 v 156.761 h 156.78"
         style="fill:#e2e2e0;fill-opacity:1;fill-rule:nonzero;stroke:none"
         id="path434" /><path
         d="m 5861.66,1038.32 v 141.78 h -141.78 v -141.78 z m 7.5,149.28 v -156.78 h -156.78 v 156.78 h 156.78"
         style="fill:#e2e2e0;fill-opacity:1;fill-rule:nonzero;stroke:none"
         id="path436" /><path
         d="M 5712.38,590.512 V 732.281 H 5570.62 V 590.512 Z m 7.5,149.269 V 583.012 h -156.76 v 156.769 h 156.76"
         style="fill:#e2e2e0;fill-opacity:1;fill-rule:nonzero;stroke:none"
         id="path438" /><path
         d="M 5563.12,590.512 V 732.281 H 5421.35 V 590.512 Z m 7.5,149.269 V 583.012 h -156.77 v 156.769 h 156.77"
         style="fill:#e2e2e0;fill-opacity:1;fill-rule:nonzero;stroke:none"
         id="path440" /><path
         d="M 5413.85,590.512 V 732.281 H 5272.07 V 590.512 Z m 7.5,149.269 V 583.012 h -156.78 v 156.769 h 156.78"
         style="fill:#e2e2e0;fill-opacity:1;fill-rule:nonzero;stroke:none"
         id="path442" /><path
         d="M 3979.28,450.301 H 4566 l 209.21,-209.219 h -582.54 z m -6.4,603.669 h 588.74 V 465.238 h -588.74 z m 812.9,-219.79 V 251.641 l -209.22,209.218 v 586.711 z m -209.22,234.73 H 3957.94 V 450.301 l 228.53,-224.16 h 614.25 v 614.23 l -224.16,228.539"
         style="fill:#828887;fill-opacity:1;fill-rule:nonzero;stroke:none"
         id="path444" /><path
         d="m 2943.53,340.309 200.57,200.562 200.57,-200.562 h 53.54 L 3144.1,594.422 2889.98,340.309 h 53.55"
         style="fill:#9E9E9E50;fill-opacity:1;fill-rule:nonzero;stroke:none"
         id="path446" /><path
         d="M 2793.72,565.09 V 511.551 L 3144.1,861.93 3494.48,511.551 V 565.09 L 3144.1,915.469 2793.72,565.09"
         style="fill:#9E9E9E50;fill-opacity:1;fill-rule:nonzero;stroke:none"
         id="path448" /><path
         d="M 2793.72,404.559 V 351.02 L 3144.1,701.402 3494.48,351.02 v 53.539 l -350.38,350.39 -350.38,-350.39"
         style="fill:#9E9E9E50;fill-opacity:1;fill-rule:nonzero;stroke:none"
         id="path450" /><path
         d="m 2804.87,1699.93 -11.15,-11.14 v -53.55 l 64.7,64.69 h -53.55"
         style="fill:#9E9E9E50;fill-opacity:1;fill-rule:nonzero;stroke:none"
         id="path452" /><path
         d="m 2965.39,1699.93 -171.67,-171.67 v -53.55 l 225.22,225.22 h -53.55"
         style="fill:#9E9E9E50;fill-opacity:1;fill-rule:nonzero;stroke:none"
         id="path454" /><path
         d="m 3104.06,340.309 40.04,40.031 40.04,-40.031 h 53.55 l -93.59,93.593 -93.59,-93.593 h 53.55"
         style="fill:#9E9E9E50;fill-opacity:1;fill-rule:nonzero;stroke:none"
         id="path456" /><path
         d="m 3125.92,1699.93 -332.2,-332.19 v -53.56 l 350.38,350.38 350.38,-350.38 v 53.56 l -332.2,332.19 h -36.36"
         style="fill:#9E9E9E50;fill-opacity:1;fill-rule:nonzero;stroke:none"
         id="path458" /><path
         d="m 3269.25,1699.93 225.23,-225.22 v 53.55 l -171.68,171.67 h -53.55"
         style="fill:#9E9E9E50;fill-opacity:1;fill-rule:nonzero;stroke:none"
         id="path460" /><path
         d="m 3429.78,1699.93 64.7,-64.69 v 53.55 l -11.15,11.14 h -53.55"
         style="fill:#9E9E9E50;fill-opacity:1;fill-rule:nonzero;stroke:none"
         id="path462" /><path
         d="m 2793.72,886.148 v -53.546 l 350.38,350.378 350.38,-350.378 v 53.546 L 3144.1,1236.53 2793.72,886.148"
         style="fill:#9E9E9E50;fill-opacity:1;fill-rule:nonzero;stroke:none"
         id="path464" /><path
         d="M 2793.72,725.629 V 672.07 l 350.38,350.38 350.38,-350.38 v 53.559 L 3144.1,1076.01 2793.72,725.629"
         style="fill:#9E9E9E50;fill-opacity:1;fill-rule:nonzero;stroke:none"
         id="path466" /><path
         d="m 2793.72,1207.2 v -53.54 l 350.38,350.38 350.38,-350.38 v 53.54 L 3144.1,1557.58 2793.72,1207.2"
         style="fill:#9E9E9E50;fill-opacity:1;fill-rule:nonzero;stroke:none"
         id="path468" /><path
         d="m 2793.72,1046.68 v -53.551 l 350.38,350.381 350.38,-350.381 v 53.551 l -350.38,350.38 -350.38,-350.38"
         style="fill:#9E9E9E50;fill-opacity:1;fill-rule:nonzero;stroke:none"
         id="path470" /><path
         d="M 5767.47,1313.35 H 3782.88 v 146.02 h 1984.59 v -146.02"
         style="fill:#838687;fill-opacity:1;fill-rule:nonzero;stroke:none"
         id="path472" /><path
         d="M 4412.06,0 H 2797.02 V 121.73 H 4412.06 V 0"
         style="fill:#20A8FF;fill-opacity:1;fill-rule:nonzero;stroke:none"
         id="path474" /><path
         d="m 4265.35,1697.22 c 26.73,0 53.45,-8.29 78.34,-24.86 43.45,-28.94 93.28,-28.94 136.73,0 49.79,33.14 106.88,33.14 156.67,0 43.45,-28.94 93.29,-28.94 136.74,0 4.13,2.74 9.71,1.63 12.47,-2.5 2.74,-4.13 1.63,-9.72 -2.51,-12.47 -49.78,-33.16 -106.88,-33.16 -156.66,0 -43.46,28.94 -93.29,28.93 -136.74,0 -49.78,-33.16 -106.88,-33.16 -156.67,0 -43.45,28.93 -93.29,28.93 -136.74,0 -49.78,-33.16 -106.88,-33.15 -156.66,0 -4.14,2.75 -5.25,8.34 -2.5,12.47 2.76,4.13 8.34,5.23 12.46,2.5 43.45,-28.93 93.28,-28.94 136.74,0 24.89,16.57 51.61,24.86 78.33,24.86"
         style="fill:#20A8FF;fill-opacity:1;fill-rule:nonzero;stroke:none"
         id="path476" /><path
         d="m 4265.35,1555.2 c 26.73,0 53.45,-8.29 78.34,-24.87 43.45,-28.93 93.28,-28.93 136.73,0 49.79,33.16 106.88,33.16 156.67,0 43.45,-28.93 93.29,-28.93 136.74,0 4.13,2.75 9.71,1.64 12.47,-2.5 2.74,-4.13 1.63,-9.71 -2.51,-12.47 -49.78,-33.15 -106.88,-33.15 -156.66,0 -43.46,28.95 -93.29,28.94 -136.74,0 -49.78,-33.15 -106.88,-33.15 -156.67,0 -43.45,28.94 -93.29,28.94 -136.74,0 -49.78,-33.15 -106.88,-33.14 -156.66,0 -4.14,2.76 -5.25,8.34 -2.5,12.47 2.76,4.14 8.34,5.25 12.46,2.5 43.45,-28.92 93.28,-28.93 136.74,0 24.89,16.58 51.61,24.87 78.33,24.87"
         style="fill:#20A8FF;fill-opacity:1;fill-rule:nonzero;stroke:none"
         id="path478" /><path
         d="m 4265.35,1413.18 c 26.73,0 53.45,-8.29 78.34,-24.87 43.45,-28.93 93.28,-28.93 136.73,0 49.79,33.16 106.88,33.16 156.67,0 43.45,-28.92 93.29,-28.92 136.74,0 4.13,2.75 9.71,1.63 12.47,-2.5 2.74,-4.13 1.63,-9.71 -2.51,-12.47 -49.78,-33.15 -106.88,-33.15 -156.66,0 -43.46,28.95 -93.29,28.94 -136.74,0 -49.78,-33.15 -106.88,-33.15 -156.67,0 -43.45,28.94 -93.29,28.94 -136.74,0 -49.78,-33.15 -106.88,-33.14 -156.66,0 -4.14,2.76 -5.25,8.34 -2.5,12.47 2.76,4.13 8.34,5.25 12.46,2.5 43.45,-28.92 93.28,-28.92 136.74,0 24.89,16.58 51.61,24.87 78.33,24.87"
         style="fill:#20A8FF;fill-opacity:1;fill-rule:nonzero;stroke:none"
         id="path480" /><path
         d="m 4265.35,1271.16 c 26.73,0 53.45,-8.3 78.34,-24.87 43.45,-28.93 93.28,-28.93 136.73,0 49.79,33.16 106.88,33.16 156.67,0 43.45,-28.92 93.29,-28.92 136.74,0 4.13,2.75 9.71,1.63 12.47,-2.5 2.74,-4.13 1.63,-9.71 -2.51,-12.47 -49.78,-33.14 -106.88,-33.14 -156.66,0 -43.46,28.95 -93.29,28.94 -136.74,0 -49.78,-33.14 -106.88,-33.14 -156.67,0 -43.45,28.94 -93.29,28.94 -136.74,0 -49.78,-33.14 -106.88,-33.14 -156.66,0 -4.14,2.76 -5.25,8.34 -2.5,12.47 2.76,4.13 8.34,5.25 12.46,2.5 43.45,-28.92 93.28,-28.92 136.74,0 24.89,16.57 51.61,24.87 78.33,24.87"
         style="fill:#20A8FF;fill-opacity:1;fill-rule:nonzero;stroke:none"
         id="path482" /><path
         d="m 5303.38,2096.65 c -56.12,0 -101.78,45.66 -101.78,101.78 0,56.12 45.66,101.77 101.78,101.77 56.12,0 101.77,-45.65 101.77,-101.77 0,-56.12 -45.65,-101.78 -101.77,-101.78 z m 0,223.75 c -67.26,0 -121.97,-54.71 -121.97,-121.97 0,-67.26 54.71,-121.98 121.97,-121.98 67.25,0 121.97,54.72 121.97,121.98 0,67.26 -54.72,121.97 -121.97,121.97"
         style="fill:#eeefee;fill-opacity:1;fill-rule:nonzero;stroke:none"
         id="path484" /><path
         d="m 1533.79,216.102 c -56.12,0 -101.77,45.66 -101.77,101.769 0,56.129 45.65,101.777 101.77,101.777 56.12,0 101.77,-45.648 101.77,-101.777 0,-56.109 -45.65,-101.769 -101.77,-101.769 z m 0,223.75 c -67.26,0 -121.97,-54.711 -121.97,-121.981 0,-67.25 54.71,-121.973 121.97,-121.973 67.25,0 121.97,54.723 121.97,121.973 0,67.27 -54.72,121.981 -121.97,121.981"
         style="fill:#eeefee;fill-opacity:1;fill-rule:nonzero;stroke:none"
         id="path486" /><path
         d="m 163.805,4506.28 c -56.125,0 -101.7737,45.67 -101.7737,101.78 0,56.12 45.6487,101.78 101.7737,101.78 56.117,0 101.765,-45.66 101.765,-101.78 0,-56.11 -45.648,-101.78 -101.765,-101.78 z m 0,223.75 c -67.262,0 -121.973,-54.71 -121.973,-121.97 0,-67.26 54.711,-121.97 121.973,-121.97 67.254,0 121.965,54.71 121.965,121.97 0,67.26 -54.711,121.97 -121.965,121.97"
         style="fill:#eeefee;fill-opacity:1;fill-rule:nonzero;stroke:none"
         id="path488" /><path
         d="m 4264.33,4370.8 c -4.93,3.97 -9.9,7.84 -14.91,11.63 l -832.89,-832.9 c 3.79,-5.01 7.65,-9.99 11.62,-14.9 l 836.18,836.17"
         style="fill:#838687;fill-opacity:1;fill-rule:nonzero;stroke:none"
         id="path490" /><path
         d="m 4060.86,4477.74 c -6.9,2.04 -13.85,3.91 -20.81,5.71 l -724.54,-724.54 c 1.79,-6.96 3.67,-13.91 5.72,-20.81 l 739.63,739.64"
         style="fill:#838687;fill-opacity:1;fill-rule:nonzero;stroke:none"
         id="path492" /><path
         d="m 4203.78,4413.72 c -5.5,3.4 -11.05,6.69 -16.63,9.9 l -811.81,-811.81 c 3.2,-5.59 6.49,-11.13 9.89,-16.63 l 818.55,818.54"
         style="fill:#838687;fill-opacity:1;fill-rule:nonzero;stroke:none"
         id="path494" /><path
         d="m 4136.24,4449.65 c -6.14,2.78 -12.31,5.45 -18.53,8 L 3341.3,3681.24 c 2.56,-6.21 5.23,-12.38 8.01,-18.52 l 786.93,786.93"
         style="fill:#838687;fill-opacity:1;fill-rule:nonzero;stroke:none"
         id="path496" /><path
         d="m 3975.93,4496.27 c -7.87,1.12 -15.75,2.06 -23.65,2.87 l -652.47,-652.46 c 0.81,-7.9 1.75,-15.79 2.88,-23.65 l 673.24,673.24"
         style="fill:#838687;fill-opacity:1;fill-rule:nonzero;stroke:none"
         id="path498" /><path
         d="m 4311.84,4328.12 c -2.22,2.22 -4.48,4.36 -6.71,6.54 L 3464.3,3493.83 c 2.17,-2.24 4.33,-4.49 6.54,-6.72 2.22,-2.21 4.48,-4.36 6.72,-6.54 l 840.83,840.83 c -2.18,2.24 -4.34,4.49 -6.55,6.72"
         style="fill:#838687;fill-opacity:1;fill-rule:nonzero;stroke:none"
         id="path500" /><path
         d="m 3878.33,4502.13 c -9.27,-0.2 -18.54,-0.62 -27.79,-1.26 l -552.46,-552.45 c -0.63,-9.26 -1.05,-18.52 -1.25,-27.79 l 581.5,581.5"
         style="fill:#838687;fill-opacity:1;fill-rule:nonzero;stroke:none"
         id="path502" /><path
         d="m 3311.2,4038.47 449.29,449.29 c -11.98,-2.69 -23.9,-5.76 -35.72,-9.19 l -404.38,-404.38 c -3.44,-11.82 -6.5,-23.74 -9.19,-35.72"
         style="fill:#838687;fill-opacity:1;fill-rule:nonzero;stroke:none"
         id="path504" /><path
         d="m 4484.6,3866.81 c 0.63,9.26 1.06,18.52 1.26,27.79 l -581.5,-581.5 c 9.26,0.19 18.53,0.62 27.79,1.26 l 552.45,552.45"
         style="fill:#838687;fill-opacity:1;fill-rule:nonzero;stroke:none"
         id="path506" /><path
         d="m 4482.87,3968.55 c -0.81,7.9 -1.75,15.79 -2.87,23.65 l -673.24,-673.24 c 7.86,-1.13 15.75,-2.06 23.65,-2.87 l 652.46,652.46"
         style="fill:#838687;fill-opacity:1;fill-rule:nonzero;stroke:none"
         id="path508" /><path
         d="m 3589.3,4420.03 c -42.28,-24.96 -82.13,-55.59 -118.46,-91.91 -36.32,-36.33 -66.96,-76.18 -91.92,-118.46 l 210.38,210.37"
         style="fill:#838687;fill-opacity:1;fill-rule:nonzero;stroke:none"
         id="path510" /><path
         d="m 4462.29,3741.04 c 3.44,11.82 6.51,23.74 9.19,35.72 L 4022.2,3327.47 c 11.98,2.69 23.88,5.76 35.72,9.19 l 404.37,404.38"
         style="fill:#838687;fill-opacity:1;fill-rule:nonzero;stroke:none"
         id="path512" /><path
         d="m 4193.39,3395.2 c 42.27,24.95 82.13,55.59 118.45,91.91 36.32,36.33 66.96,76.18 91.92,118.46 L 4193.39,3395.2"
         style="fill:#838687;fill-opacity:1;fill-rule:nonzero;stroke:none"
         id="path514" /><path
         d="m 4407.34,4203.42 c -3.2,5.59 -6.49,11.13 -9.89,16.63 l -818.54,-818.54 c 5.49,-3.4 11.04,-6.69 16.63,-9.9 l 811.8,811.81"
         style="fill:#838687;fill-opacity:1;fill-rule:nonzero;stroke:none"
         id="path516" /><path
         d="m 4366.15,4265.7 c -3.79,5.01 -7.65,9.99 -11.62,14.9 l -836.17,-836.17 c 4.91,-3.97 9.89,-7.84 14.9,-11.62 l 832.89,832.89"
         style="fill:#838687;fill-opacity:1;fill-rule:nonzero;stroke:none"
         id="path518" /><path
         d="m 4467.18,4056.32 c -1.8,6.97 -3.67,13.91 -5.72,20.81 l -739.63,-739.64 c 6.9,-2.04 13.84,-3.91 20.81,-5.71 l 724.54,724.54"
         style="fill:#838687;fill-opacity:1;fill-rule:nonzero;stroke:none"
         id="path520" /><path
         d="m 4441.38,4133.99 c -2.55,6.21 -5.23,12.39 -8,18.52 l -786.93,-786.93 c 6.13,-2.77 12.31,-5.45 18.52,-8 l 776.41,776.41"
         style="fill:#838687;fill-opacity:1;fill-rule:nonzero;stroke:none"
         id="path522" /><path
         d="m 213.266,442.691 c -2.489,2.02 -5.012,3.969 -7.551,5.899 L -216.488,26.3789 c 1.918,-2.5391 3.875,-5.0586 5.89,-7.5469 l 423.864,423.859"
         style="fill:#20A8FF;fill-opacity:1;fill-rule:nonzero;stroke:none"
         id="path524" /><path
         d="m 110.129,496.898 c -3.504,1.032 -7.024,1.993 -10.5548,2.903 L -267.699,132.52 c 0.906,-3.532 1.859,-7.051 2.894,-10.551 l 374.934,374.929"
         style="fill:#20A8FF;fill-opacity:1;fill-rule:nonzero;stroke:none"
         id="path526" /><path
         d="m 182.578,464.449 c -2.789,1.723 -5.605,3.391 -8.433,5.02 L -237.367,57.9492 c 1.621,-2.8281 3.289,-5.6406 5.012,-8.4375 L 182.578,464.449"
         style="fill:#20A8FF;fill-opacity:1;fill-rule:nonzero;stroke:none"
         id="path528" /><path
         d="m 148.34,482.66 c -3.11,1.41 -6.238,2.762 -9.391,4.059 L -254.625,93.1484 c 1.297,-3.1601 2.652,-6.2773 4.059,-9.3984 L 148.34,482.66"
         style="fill:#20A8FF;fill-opacity:1;fill-rule:nonzero;stroke:none"
         id="path530" /><path
         d="m 67.0742,506.289 c -3.9883,0.582 -7.9883,1.051 -11.9922,1.461 L -275.652,177.012 c 0.41,-4 0.886,-8 1.453,-11.992 L 67.0742,506.289"
         style="fill:#20A8FF;fill-opacity:1;fill-rule:nonzero;stroke:none"
         id="path532" /><path
         d="m 237.355,421.059 c -1.125,1.121 -2.273,2.211 -3.41,3.32 L -192.281,-1.85156 c 1.105,-1.13672 2.199,-2.28907 3.32,-3.40625 1.129,-1.1211 2.273,-2.22266 3.41,-3.32032 L 240.676,417.652 c -1.106,1.129 -2.199,2.27 -3.321,3.407"
         style="fill:#20A8FF;fill-opacity:1;fill-rule:nonzero;stroke:none"
         id="path534" /><path
         d="M 17.5977,509.27 C 12.9023,509.16 8.20313,508.949 3.51563,508.629 L -276.531,228.582 c -0.324,-4.691 -0.539,-9.391 -0.641,-14.09 L 17.5977,509.27"
         style="fill:#20A8FF;fill-opacity:1;fill-rule:nonzero;stroke:none"
         id="path536" /><path
         d="m 324.926,187.211 c 0.324,4.699 0.539,9.391 0.64,14.09 L 30.7969,-93.4688 c 4.6953,0.0977 9.3945,0.3204 14.0859,0.6407 L 324.926,187.211"
         style="fill:#20A8FF;fill-opacity:1;fill-rule:nonzero;stroke:none"
         id="path538" /><path
         d="m 324.047,238.781 c -0.41,4.008 -0.883,8.008 -1.453,11.989 L -18.6797,-90.5 c 3.9883,-0.5703 7.9844,-1.0391 11.9922,-1.4492 L 324.047,238.781"
         style="fill:#20A8FF;fill-opacity:1;fill-rule:nonzero;stroke:none"
         id="path540" /><path
         d="m 313.617,123.461 c 1.742,6 3.297,12.031 4.664,18.109 L 90.5273,-86.1914 c 6.0743,1.3711 12.1137,2.9219 18.1097,4.6719 l 204.98,204.9805"
         style="fill:#20A8FF;fill-opacity:1;fill-rule:nonzero;stroke:none"
         id="path542" /><path
         d="m 177.305,-51.8516 c 21.429,12.6407 41.636,28.1836 60.05,46.59379 18.411,18.41801 33.946,38.61721 46.594,60.04691 L 177.305,-51.8516"
         style="fill:#20A8FF;fill-opacity:1;fill-rule:nonzero;stroke:none"
         id="path544" /><path
         d="m 285.766,357.84 c -1.625,2.84 -3.293,5.652 -5.02,8.441 l -414.93,-414.9294 c 2.789,-1.7305 5.606,-3.4024 8.43,-5.0196 l 411.52,411.508"
         style="fill:#20A8FF;fill-opacity:1;fill-rule:nonzero;stroke:none"
         id="path546" /><path
         d="m 264.883,389.422 c -1.918,2.539 -3.875,5.058 -5.895,7.547 L -164.871,-26.8906 c 2.488,-2.0196 5.012,-3.9805 7.551,-5.8985 L 264.883,389.422"
         style="fill:#20A8FF;fill-opacity:1;fill-rule:nonzero;stroke:none"
         id="path548" /><path
         d="m 316.094,283.27 c -0.906,3.539 -1.86,7.062 -2.903,10.562 L -61.7344,-81.0977 c 3.5039,-1.0429 7.0235,-1.9921 10.5547,-2.9023 L 316.094,283.27"
         style="fill:#20A8FF;fill-opacity:1;fill-rule:nonzero;stroke:none"
         id="path550" /><path
         d="m 303.02,322.652 c -1.297,3.149 -2.653,6.278 -4.059,9.387 L -99.9453,-66.8594 c 3.1094,-1.4101 6.2383,-2.7695 9.3906,-4.0586 L 303.02,322.652"
         style="fill:#20A8FF;fill-opacity:1;fill-rule:nonzero;stroke:none"
         id="path552" /><path
         d="m 2439.31,1167.29 h -143.12 v 143.11 h 143.12 v -143.11"
         style="fill:#838687;fill-opacity:1;fill-rule:nonzero;stroke:none"
         id="path554" /><path
         d="M 2434.31,794.75 V 927.859 H 2301.2 V 794.75 Z m 10,143.109 V 784.75 H 2291.2 v 153.109 h 153.11"
         style="fill:#838687;fill-opacity:1;fill-rule:nonzero;stroke:none"
         id="path556" /><path
         d="m 6920.26,4409.5 v -143.12 h -143.12 v 143.12 h 143.12"
         style="fill:#838687;fill-opacity:1;fill-rule:nonzero;stroke:none"
         id="path558" /><path
         d="m 7292.8,4404.5 h -133.11 v -133.11 h 133.11 z m -143.11,10 h 153.11 v -153.11 h -153.11 v 153.11"
         style="fill:#838687;fill-opacity:1;fill-rule:nonzero;stroke:none"
         id="path560" /><path
         d="m 133.801,2257.21 h -20 v 1995.5 h 20 v -1995.5"
         style="fill:#838687;fill-opacity:1;fill-rule:nonzero;stroke:none"
         id="path562" /><path
         d="m 2012.03,3693.57 v 21.77 h 522.12 v -21.77 h -522.12"
         style="fill:#838687;fill-opacity:1;fill-rule:nonzero;stroke:none"
         id="path564" /><path
         d="m 2872.98,3693.57 v 21.77 h 123.82 v -21.77 h -123.82"
         style="fill:#838687;fill-opacity:1;fill-rule:nonzero;stroke:none"
         id="path566" /><path
         d="M 4189.23,785.949 V 764.18 h -522.12 v 21.769 h 522.12"
         style="fill:#838687;fill-opacity:1;fill-rule:nonzero;stroke:none"
         id="path568" /><path
         d="M 3328.28,785.949 V 764.18 h -123.82 v 21.769 h 123.82"
         style="fill:#838687;fill-opacity:1;fill-rule:nonzero;stroke:none"
         id="path570" /><path
         d="m 4031.81,2654.43 c -7.81,0 -14.12,6.32 -14.12,14.12 0,7.8 6.31,14.12 14.12,14.12 7.79,0 14.12,-6.32 14.12,-14.12 0,-7.8 -6.33,-14.12 -14.12,-14.12"
         style="fill:#838687;fill-opacity:1;fill-rule:nonzero;stroke:none"
         id="path572" /><path
         d="m 4031.81,2470.27 c -7.81,0 -14.12,6.31 -14.12,14.12 0,7.79 6.31,14.11 14.12,14.11 7.79,0 14.12,-6.32 14.12,-14.11 0,-7.81 -6.33,-14.12 -14.12,-14.12"
         style="fill:#838687;fill-opacity:1;fill-rule:nonzero;stroke:none"
         id="path574" /><path
         d="m 3849.24,2654.43 c -7.79,0 -14.12,6.32 -14.12,14.12 0,7.8 6.33,14.12 14.12,14.12 7.8,0 14.12,-6.32 14.12,-14.12 0,-7.8 -6.32,-14.12 -14.12,-14.12"
         style="fill:#838687;fill-opacity:1;fill-rule:nonzero;stroke:none"
         id="path576" /><path
         d="m 3849.24,2470.27 c -7.79,0 -14.12,6.31 -14.12,14.12 0,7.79 6.33,14.11 14.12,14.11 7.8,0 14.12,-6.32 14.12,-14.11 0,-7.81 -6.32,-14.12 -14.12,-14.12"
         style="fill:#838687;fill-opacity:1;fill-rule:nonzero;stroke:none"
         id="path578" /><path
         d="m 3666.67,2654.43 c -7.79,0 -14.11,6.32 -14.11,14.12 0,7.8 6.32,14.12 14.11,14.12 7.8,0 14.12,-6.32 14.12,-14.12 0,-7.8 -6.32,-14.12 -14.12,-14.12"
         style="fill:#838687;fill-opacity:1;fill-rule:nonzero;stroke:none"
         id="path580" /><path
         d="m 3666.67,2470.27 c -7.79,0 -14.11,6.31 -14.11,14.12 0,7.79 6.32,14.11 14.11,14.11 7.8,0 14.12,-6.32 14.12,-14.11 0,-7.81 -6.32,-14.12 -14.12,-14.12"
         style="fill:#838687;fill-opacity:1;fill-rule:nonzero;stroke:none"
         id="path582" /><path
         d="m 3484.11,2654.43 c -7.8,0 -14.12,6.32 -14.12,14.12 0,7.8 6.32,14.12 14.12,14.12 7.8,0 14.12,-6.32 14.12,-14.12 0,-7.8 -6.32,-14.12 -14.12,-14.12"
         style="fill:#838687;fill-opacity:1;fill-rule:nonzero;stroke:none"
         id="path584" /><path
         d="m 3484.11,2470.27 c -7.8,0 -14.12,6.31 -14.12,14.12 0,7.79 6.32,14.11 14.12,14.11 7.8,0 14.12,-6.32 14.12,-14.11 0,-7.81 -6.32,-14.12 -14.12,-14.12"
         style="fill:#838687;fill-opacity:1;fill-rule:nonzero;stroke:none"
         id="path586" /><path
         d="m 3301.54,2654.43 c -7.79,0 -14.12,6.32 -14.12,14.12 0,7.8 6.33,14.12 14.12,14.12 7.8,0 14.12,-6.32 14.12,-14.12 0,-7.8 -6.32,-14.12 -14.12,-14.12"
         style="fill:#838687;fill-opacity:1;fill-rule:nonzero;stroke:none"
         id="path588" /><path
         d="m 3301.54,2470.27 c -7.79,0 -14.12,6.31 -14.12,14.12 0,7.79 6.33,14.11 14.12,14.11 7.8,0 14.12,-6.32 14.12,-14.11 0,-7.81 -6.32,-14.12 -14.12,-14.12"
         style="fill:#838687;fill-opacity:1;fill-rule:nonzero;stroke:none"
         id="path590" /><path
         d="m 3118.98,2654.43 c -7.8,0 -14.12,6.32 -14.12,14.12 0,7.8 6.32,14.12 14.12,14.12 7.8,0 14.12,-6.32 14.12,-14.12 0,-7.8 -6.32,-14.12 -14.12,-14.12"
         style="fill:#838687;fill-opacity:1;fill-rule:nonzero;stroke:none"
         id="path592" /><path
         d="m 3118.98,2470.27 c -7.8,0 -14.12,6.31 -14.12,14.12 0,7.79 6.32,14.11 14.12,14.11 7.8,0 14.12,-6.32 14.12,-14.11 0,-7.81 -6.32,-14.12 -14.12,-14.12"
         style="fill:#838687;fill-opacity:1;fill-rule:nonzero;stroke:none"
         id="path594" /><path
         d="m 2936.41,2654.43 c -7.8,0 -14.12,6.32 -14.12,14.12 0,7.8 6.32,14.12 14.12,14.12 7.8,0 14.12,-6.32 14.12,-14.12 0,-7.8 -6.32,-14.12 -14.12,-14.12"
         style="fill:#838687;fill-opacity:1;fill-rule:nonzero;stroke:none"
         id="path596" /><path
         d="m 2936.41,2470.27 c -7.8,0 -14.12,6.31 -14.12,14.12 0,7.79 6.32,14.11 14.12,14.11 7.8,0 14.12,-6.32 14.12,-14.11 0,-7.81 -6.32,-14.12 -14.12,-14.12"
         style="fill:#838687;fill-opacity:1;fill-rule:nonzero;stroke:none"
         id="path598" /><path
         d="m 104.848,980.789 c 0,7.813 6.324,14.121 14.121,14.121 7.801,0 14.117,-6.308 14.117,-14.121 0,-7.789 -6.316,-14.109 -14.117,-14.109 -7.797,0 -14.121,6.32 -14.121,14.109"
         style="fill:#838687;fill-opacity:1;fill-rule:nonzero;stroke:none"
         id="path600" /><path
         d="m 104.848,1163.36 c 0,7.8 6.324,14.12 14.121,14.12 7.801,0 14.117,-6.32 14.117,-14.12 0,-7.79 -6.316,-14.12 -14.117,-14.12 -7.797,0 -14.121,6.33 -14.121,14.12"
         style="fill:#838687;fill-opacity:1;fill-rule:nonzero;stroke:none"
         id="path602" /><path
         d="m 104.848,1345.93 c 0,7.79 6.324,14.12 14.121,14.12 7.801,0 14.117,-6.33 14.117,-14.12 0,-7.8 -6.316,-14.12 -14.117,-14.12 -7.797,0 -14.121,6.32 -14.121,14.12"
         style="fill:#838687;fill-opacity:1;fill-rule:nonzero;stroke:none"
         id="path604" /><path
         d="m 104.848,1528.5 c 0,7.79 6.324,14.11 14.121,14.11 7.801,0 14.117,-6.32 14.117,-14.11 0,-7.8 -6.316,-14.12 -14.117,-14.12 -7.797,0 -14.121,6.32 -14.121,14.12"
         style="fill:#838687;fill-opacity:1;fill-rule:nonzero;stroke:none"
         id="path606" /><path
         d="m 104.848,1711.06 c 0,7.8 6.324,14.12 14.121,14.12 7.801,0 14.117,-6.32 14.117,-14.12 0,-7.8 -6.316,-14.12 -14.117,-14.12 -7.797,0 -14.121,6.32 -14.121,14.12"
         style="fill:#838687;fill-opacity:1;fill-rule:nonzero;stroke:none"
         id="path608" /><path
         d="m 104.848,1893.63 c 0,7.79 6.324,14.12 14.121,14.12 7.801,0 14.117,-6.33 14.117,-14.12 0,-7.81 -6.316,-14.13 -14.117,-14.13 -7.797,0 -14.121,6.32 -14.121,14.13"
         style="fill:#838687;fill-opacity:1;fill-rule:nonzero;stroke:none"
         id="path610" /><path
         d="m 104.848,2076.19 c 0,7.8 6.324,14.13 14.121,14.13 7.801,0 14.117,-6.33 14.117,-14.13 0,-7.8 -6.316,-14.12 -14.117,-14.12 -7.797,0 -14.121,6.32 -14.121,14.12"
         style="fill:#838687;fill-opacity:1;fill-rule:nonzero;stroke:none"
         id="path612" /></g></g></svg>
