<?xml version="1.0" encoding="UTF-8" standalone="no"?>
<svg
   xmlns:dc="http://purl.org/dc/elements/1.1/"
   xmlns:cc="http://creativecommons.org/ns#"
   xmlns:rdf="http://www.w3.org/1999/02/22-rdf-syntax-ns#"
   xmlns:svg="http://www.w3.org/2000/svg"
   xmlns="http://www.w3.org/2000/svg"
   xmlns:sodipodi="http://sodipodi.sourceforge.net/DTD/sodipodi-0.dtd"
   xmlns:inkscape="http://www.inkscape.org/namespaces/inkscape"
   version="1.1"
   id="svg2"
   xml:space="preserve"
   width="1000"
   height="666.66669"
   viewBox="0 0 1000 666.66669"
   sodipodi:docname="5348661.eps"><metadata
     id="metadata8"><rdf:RDF><cc:Work
         rdf:about=""><dc:format>image/svg+xml</dc:format><dc:type
           rdf:resource="http://purl.org/dc/dcmitype/StillImage" /></cc:Work></rdf:RDF></metadata><defs
     id="defs6" /><sodipodi:namedview
     pagecolor="#ffffff"
     bordercolor="#666666"
     borderopacity="1"
     objecttolerance="10"
     gridtolerance="10"
     guidetolerance="10"
     inkscape:pageopacity="0"
     inkscape:pageshadow="2"
     inkscape:window-width="640"
     inkscape:window-height="480"
     id="namedview4" /><g
     id="g10"
     inkscape:groupmode="layer"
     inkscape:label="ink_ext_XXXXXX"
     transform="matrix(1.3333333,0,0,-1.3333333,0,666.66667)"><g
       id="g12"
       transform="scale(0.1)"><path
         d="M 7500,5000 V 0 H 0 v 5000 h 7500"
         style="fill:#eaeaea00;fill-opacity:1;fill-rule:nonzero;stroke:none"
         id="path14" /><path
         d="m 6712.59,1917.27 c 0,131.5 -106.6,238.11 -238.1,238.11 -131.51,0 -238.11,-106.61 -238.11,-238.11 0,-131.5 106.6,-238.1 238.11,-238.1 131.5,0 238.1,106.6 238.1,238.1"
         style="fill:#6800df;fill-opacity:1;fill-rule:nonzero;stroke:none"
         id="path16" /><path
         d="m 7077.14,2715.41 c 0,271.3 -219.94,491.25 -491.25,491.25 -271.3,0 -491.24,-219.95 -491.24,-491.25 0,-271.31 219.94,-491.25 491.24,-491.25 271.31,0 491.25,219.94 491.25,491.25"
         style="fill:#6800df;fill-opacity:1;fill-rule:nonzero;stroke:none"
         id="path18" /><path
         d="m 7218.87,2857.14 c 0,271.31 -219.93,491.24 -491.24,491.24 -271.31,0 -491.25,-219.93 -491.25,-491.24 0,-271.31 219.94,-491.25 491.25,-491.25 271.31,0 491.24,219.94 491.24,491.25"
         style="fill:#edb000;fill-opacity:1;fill-rule:nonzero;stroke:none"
         id="path20" /><path
         d="m 7048.28,48.6211 c 0,271.3089 -219.93,491.2379 -491.24,491.2379 -271.31,0 -491.25,-219.929 -491.25,-491.2379 0,-271.3121 219.94,-491.2501 491.25,-491.2501 271.31,0 491.24,219.938 491.24,491.2501"
         style="fill:#edb000;fill-opacity:1;fill-rule:nonzero;stroke:none"
         id="path22" /><path
         d="m 6169.65,4935.12 c 0,271.31 -219.94,491.25 -491.25,491.25 -271.3,0 -491.24,-219.94 -491.24,-491.25 0,-271.31 219.94,-491.24 491.24,-491.24 271.31,0 491.25,219.93 491.25,491.24"
         style="fill:#9f55ff;fill-opacity:1;fill-rule:nonzero;stroke:none"
         id="path24" /><path
         d="m 7882.47,4487.29 c 0,383.04 -310.52,693.55 -693.56,693.55 -383.03,0 -693.55,-310.51 -693.55,-693.55 0,-383.04 310.52,-693.55 693.55,-693.55 383.04,0 693.56,310.51 693.56,693.55 z"
         style="fill:none;stroke:#6800df;stroke-width:200;stroke-linecap:butt;stroke-linejoin:miter;stroke-miterlimit:10;stroke-dasharray:none;stroke-opacity:1"
         id="path26" /><path
         d="m 6041.44,1293.04 c 0,277.3 -224.79,502.09 -502.09,502.09 -277.29,0 -502.09,-224.79 -502.09,-502.09 0,-277.29 224.8,-502.091 502.09,-502.091 277.3,0 502.09,224.801 502.09,502.091 z"
         style="fill:none;stroke:#edb000;stroke-width:200;stroke-linecap:butt;stroke-linejoin:miter;stroke-miterlimit:10;stroke-dasharray:none;stroke-opacity:1"
         id="path28" /><path
         d="M 7305.14,1795.13 V 776.91 l -830.65,509.11 z"
         style="fill:#6800df;fill-opacity:1;fill-rule:nonzero;stroke:none"
         id="path30" /><path
         d="M 7080.2,1795.13 V 776.91 l -830.65,509.11 z"
         style="fill:none;stroke:#320072;stroke-width:10;stroke-linecap:butt;stroke-linejoin:miter;stroke-miterlimit:10;stroke-dasharray:none;stroke-opacity:1"
         id="path32" /><path
         d="m 5411.21,4766.11 c 0,-57.19 -73.23,-57.19 -73.23,-114.39 0,-57.19 73.23,-57.19 73.23,-114.4 0,-57.17 -73.23,-57.17 -73.23,-114.35 0,-57.2 73.23,-57.2 73.23,-114.39 0,-57.22 -73.23,-57.22 -73.23,-114.43 0,-57.2 73.23,-57.2 73.23,-114.39 0,-57.24 -73.23,-57.24 -73.23,-114.47 0,-57.24 73.23,-57.24 73.23,-114.47"
         style="fill:none;stroke:#320072;stroke-width:10;stroke-linecap:butt;stroke-linejoin:miter;stroke-miterlimit:10;stroke-dasharray:none;stroke-opacity:1"
         id="path34" /><path
         d="m 7106.49,2881.89 v 37.57 L 7584,2696.79 v -37.58 l -477.51,222.68"
         style="fill:#320072;fill-opacity:1;fill-rule:nonzero;stroke:none"
         id="path36" /><path
         d="m 7106.49,2759.75 v 37.58 L 7584,2574.66 v -37.58 l -477.51,222.67"
         style="fill:#320072;fill-opacity:1;fill-rule:nonzero;stroke:none"
         id="path38" /><path
         d="m 7106.49,2637.61 v 37.59 L 7584,2452.53 v -37.58 l -477.51,222.66"
         style="fill:#320072;fill-opacity:1;fill-rule:nonzero;stroke:none"
         id="path40" /><path
         d="m 7106.49,2515.48 v 37.58 L 7584,2330.39 v -37.58 l -477.51,222.67"
         style="fill:#320072;fill-opacity:1;fill-rule:nonzero;stroke:none"
         id="path42" /><path
         d="m 7106.49,2393.35 v 37.57 L 7584,2208.26 v -37.58 l -477.51,222.67"
         style="fill:#320072;fill-opacity:1;fill-rule:nonzero;stroke:none"
         id="path44" /><path
         d="m 7106.49,2271.21 v 37.58 L 7584,2086.12 v -37.58 l -477.51,222.67"
         style="fill:#320072;fill-opacity:1;fill-rule:nonzero;stroke:none"
         id="path46" /><path
         d="m 7106.49,2149.08 v 37.58 L 7584,1963.99 v -37.58 l -477.51,222.67"
         style="fill:#320072;fill-opacity:1;fill-rule:nonzero;stroke:none"
         id="path48" /><path
         d="m 7106.49,2026.94 v 37.58 L 7584,1841.85 v -37.58 l -477.51,222.67"
         style="fill:#320072;fill-opacity:1;fill-rule:nonzero;stroke:none"
         id="path50" /><path
         d="m 4972.37,4005.1 c -281.71,-281.71 -281.71,-738.45 0,-1020.16 281.72,-281.71 738.46,-281.71 1020.17,0 L 4972.37,4005.1"
         style="fill:#9f55ff;fill-opacity:1;fill-rule:nonzero;stroke:none"
         id="path52" /><path
         d="m 7142.14,3842.22 c 0,404.2 -327.67,731.87 -731.87,731.87 -404.2,0 -731.87,-327.67 -731.87,-731.87 0,-404.2 327.67,-731.86 731.87,-731.86 404.2,0 731.87,327.66 731.87,731.86 z"
         style="fill:none;stroke:#320072;stroke-width:20;stroke-linecap:round;stroke-linejoin:round;stroke-miterlimit:4;stroke-dasharray:0, 69.6763;stroke-dashoffset:0;stroke-opacity:1"
         id="path54" /><path
         d="m 7026.54,3842.22 c 0,340.35 -275.91,616.27 -616.27,616.27 -340.35,0 -616.26,-275.92 -616.26,-616.27 0,-340.35 275.91,-616.26 616.26,-616.26 340.36,0 616.27,275.91 616.27,616.26 z"
         style="fill:none;stroke:#320072;stroke-width:20;stroke-linecap:round;stroke-linejoin:round;stroke-miterlimit:4;stroke-dasharray:0, 70.392;stroke-dashoffset:0;stroke-opacity:1"
         id="path56" /><path
         d="m 6910.93,3842.22 c 0,276.51 -224.15,500.67 -500.66,500.67 -276.5,0 -500.66,-224.16 -500.66,-500.67 0,-276.51 224.16,-500.66 500.66,-500.66 276.51,0 500.66,224.15 500.66,500.66 z"
         style="fill:none;stroke:#320072;stroke-width:20;stroke-linecap:round;stroke-linejoin:round;stroke-miterlimit:4;stroke-dasharray:0, 69.8875;stroke-dashoffset:0;stroke-opacity:1"
         id="path58" /><path
         d="m 6795.34,3842.22 c 0,212.66 -172.4,385.06 -385.07,385.06 -212.66,0 -385.06,-172.4 -385.06,-385.06 0,-212.66 172.4,-385.06 385.06,-385.06 212.67,0 385.07,172.4 385.07,385.06 z"
         style="fill:none;stroke:#320072;stroke-width:20;stroke-linecap:round;stroke-linejoin:round;stroke-miterlimit:4;stroke-dasharray:0, 69.1081;stroke-dashoffset:0;stroke-opacity:1"
         id="path60" /><path
         d="m 6679.73,3842.22 c 0,148.82 -120.64,269.46 -269.46,269.46 -148.82,0 -269.45,-120.64 -269.45,-269.46 0,-148.82 120.63,-269.46 269.45,-269.46 148.82,0 269.46,120.64 269.46,269.46 z"
         style="fill:none;stroke:#320072;stroke-width:20;stroke-linecap:round;stroke-linejoin:round;stroke-miterlimit:4;stroke-dasharray:0, 70.5262;stroke-dashoffset:0;stroke-opacity:1"
         id="path62" /><path
         d="m 5184.45,2934.93 c 0,6.8 -5.52,12.31 -12.31,12.31 -6.8,0 -12.32,-5.51 -12.32,-12.31 0,-6.8 5.52,-12.31 12.32,-12.31 6.79,0 12.31,5.51 12.31,12.31"
         style="fill:#eaeaea;fill-opacity:1;fill-rule:nonzero;stroke:none"
         id="path64" /><path
         d="m 5386.91,2934.93 c 0,6.8 -5.52,12.31 -12.31,12.31 -6.8,0 -12.32,-5.51 -12.32,-12.31 0,-6.8 5.52,-12.31 12.32,-12.31 6.79,0 12.31,5.51 12.31,12.31"
         style="fill:#eaeaea;fill-opacity:1;fill-rule:nonzero;stroke:none"
         id="path66" /><path
         d="m 5589.36,2934.93 c 0,6.8 -5.51,12.31 -12.3,12.31 -6.81,0 -12.32,-5.51 -12.32,-12.31 0,-6.8 5.51,-12.31 12.32,-12.31 6.79,0 12.3,5.51 12.3,12.31"
         style="fill:#eaeaea;fill-opacity:1;fill-rule:nonzero;stroke:none"
         id="path68" /><path
         d="m 5791.82,2934.93 c 0,6.8 -5.51,12.31 -12.31,12.31 -6.8,0 -12.31,-5.51 -12.31,-12.31 0,-6.8 5.51,-12.31 12.31,-12.31 6.8,0 12.31,5.51 12.31,12.31"
         style="fill:#eaeaea;fill-opacity:1;fill-rule:nonzero;stroke:none"
         id="path70" /><path
         d="m 5994.28,2934.93 c 0,6.8 -5.5,12.31 -12.31,12.31 -6.8,0 -12.32,-5.51 -12.32,-12.31 0,-6.8 5.52,-12.31 12.32,-12.31 6.81,0 12.31,5.51 12.31,12.31"
         style="fill:#320072;fill-opacity:1;fill-rule:nonzero;stroke:none"
         id="path72" /><path
         d="m 5184.45,2748.17 c 0,6.8 -5.52,12.31 -12.31,12.31 -6.8,0 -12.32,-5.51 -12.32,-12.31 0,-6.8 5.52,-12.31 12.32,-12.31 6.79,0 12.31,5.51 12.31,12.31"
         style="fill:#320072;fill-opacity:1;fill-rule:nonzero;stroke:none"
         id="path74" /><path
         d="m 5386.91,2748.17 c 0,6.8 -5.52,12.31 -12.31,12.31 -6.8,0 -12.32,-5.51 -12.32,-12.31 0,-6.8 5.52,-12.31 12.32,-12.31 6.79,0 12.31,5.51 12.31,12.31"
         style="fill:#320072;fill-opacity:1;fill-rule:nonzero;stroke:none"
         id="path76" /><path
         d="m 5589.36,2748.17 c 0,6.8 -5.51,12.31 -12.3,12.31 -6.81,0 -12.32,-5.51 -12.32,-12.31 0,-6.8 5.51,-12.31 12.32,-12.31 6.79,0 12.3,5.51 12.3,12.31"
         style="fill:#320072;fill-opacity:1;fill-rule:nonzero;stroke:none"
         id="path78" /><path
         d="m 5791.82,2748.17 c 0,6.8 -5.51,12.31 -12.31,12.31 -6.8,0 -12.31,-5.51 -12.31,-12.31 0,-6.8 5.51,-12.31 12.31,-12.31 6.8,0 12.31,5.51 12.31,12.31"
         style="fill:#320072;fill-opacity:1;fill-rule:nonzero;stroke:none"
         id="path80" /><path
         d="m 5994.28,2748.17 c 0,6.8 -5.5,12.31 -12.31,12.31 -6.8,0 -12.32,-5.51 -12.32,-12.31 0,-6.8 5.52,-12.31 12.32,-12.31 6.81,0 12.31,5.51 12.31,12.31"
         style="fill:#320072;fill-opacity:1;fill-rule:nonzero;stroke:none"
         id="path82" /><path
         d="m 5184.45,2561.41 c 0,6.8 -5.52,12.31 -12.31,12.31 -6.8,0 -12.32,-5.51 -12.32,-12.31 0,-6.8 5.52,-12.31 12.32,-12.31 6.79,0 12.31,5.51 12.31,12.31"
         style="fill:#320072;fill-opacity:1;fill-rule:nonzero;stroke:none"
         id="path84" /><path
         d="m 5386.91,2561.41 c 0,6.8 -5.52,12.31 -12.31,12.31 -6.8,0 -12.32,-5.51 -12.32,-12.31 0,-6.8 5.52,-12.31 12.32,-12.31 6.79,0 12.31,5.51 12.31,12.31"
         style="fill:#320072;fill-opacity:1;fill-rule:nonzero;stroke:none"
         id="path86" /><path
         d="m 5589.36,2561.41 c 0,6.8 -5.51,12.31 -12.3,12.31 -6.81,0 -12.32,-5.51 -12.32,-12.31 0,-6.8 5.51,-12.31 12.32,-12.31 6.79,0 12.3,5.51 12.3,12.31"
         style="fill:#320072;fill-opacity:1;fill-rule:nonzero;stroke:none"
         id="path88" /><path
         d="m 5791.82,2561.41 c 0,6.8 -5.51,12.31 -12.31,12.31 -6.8,0 -12.31,-5.51 -12.31,-12.31 0,-6.8 5.51,-12.31 12.31,-12.31 6.8,0 12.31,5.51 12.31,12.31"
         style="fill:#320072;fill-opacity:1;fill-rule:nonzero;stroke:none"
         id="path90" /><path
         d="m 5994.28,2561.41 c 0,6.8 -5.5,12.31 -12.31,12.31 -6.8,0 -12.32,-5.51 -12.32,-12.31 0,-6.8 5.52,-12.31 12.32,-12.31 6.81,0 12.31,5.51 12.31,12.31"
         style="fill:#320072;fill-opacity:1;fill-rule:nonzero;stroke:none"
         id="path92" /><path
         d="m 5184.45,2374.64 c 0,6.81 -5.52,12.32 -12.31,12.32 -6.8,0 -12.32,-5.51 -12.32,-12.32 0,-6.79 5.52,-12.3 12.32,-12.3 6.79,0 12.31,5.51 12.31,12.3"
         style="fill:#320072;fill-opacity:1;fill-rule:nonzero;stroke:none"
         id="path94" /><path
         d="m 5386.91,2374.64 c 0,6.81 -5.52,12.32 -12.31,12.32 -6.8,0 -12.32,-5.51 -12.32,-12.32 0,-6.79 5.52,-12.3 12.32,-12.3 6.79,0 12.31,5.51 12.31,12.3"
         style="fill:#320072;fill-opacity:1;fill-rule:nonzero;stroke:none"
         id="path96" /><path
         d="m 5589.36,2374.64 c 0,6.81 -5.51,12.32 -12.3,12.32 -6.81,0 -12.32,-5.51 -12.32,-12.32 0,-6.79 5.51,-12.3 12.32,-12.3 6.79,0 12.3,5.51 12.3,12.3"
         style="fill:#320072;fill-opacity:1;fill-rule:nonzero;stroke:none"
         id="path98" /><path
         d="m 5791.82,2374.64 c 0,6.81 -5.51,12.32 -12.31,12.32 -6.8,0 -12.31,-5.51 -12.31,-12.32 0,-6.79 5.51,-12.3 12.31,-12.3 6.8,0 12.31,5.51 12.31,12.3"
         style="fill:#320072;fill-opacity:1;fill-rule:nonzero;stroke:none"
         id="path100" /><path
         d="m 5994.28,2374.64 c 0,6.81 -5.5,12.32 -12.31,12.32 -6.8,0 -12.32,-5.51 -12.32,-12.32 0,-6.79 5.52,-12.3 12.32,-12.3 6.81,0 12.31,5.51 12.31,12.3"
         style="fill:#320072;fill-opacity:1;fill-rule:nonzero;stroke:none"
         id="path102" /><path
         d="m 5184.45,2187.89 c 0,6.79 -5.52,12.31 -12.31,12.31 -6.8,0 -12.32,-5.52 -12.32,-12.31 0,-6.8 5.52,-12.32 12.32,-12.32 6.79,0 12.31,5.52 12.31,12.32"
         style="fill:#320072;fill-opacity:1;fill-rule:nonzero;stroke:none"
         id="path104" /><path
         d="m 5386.91,2187.89 c 0,6.79 -5.52,12.31 -12.31,12.31 -6.8,0 -12.32,-5.52 -12.32,-12.31 0,-6.8 5.52,-12.32 12.32,-12.32 6.79,0 12.31,5.52 12.31,12.32"
         style="fill:#320072;fill-opacity:1;fill-rule:nonzero;stroke:none"
         id="path106" /><path
         d="m 5589.36,2187.89 c 0,6.79 -5.51,12.31 -12.3,12.31 -6.81,0 -12.32,-5.52 -12.32,-12.31 0,-6.8 5.51,-12.32 12.32,-12.32 6.79,0 12.3,5.52 12.3,12.32"
         style="fill:#320072;fill-opacity:1;fill-rule:nonzero;stroke:none"
         id="path108" /><path
         d="m 5791.82,2187.89 c 0,6.79 -5.51,12.31 -12.31,12.31 -6.8,0 -12.31,-5.52 -12.31,-12.31 0,-6.8 5.51,-12.32 12.31,-12.32 6.8,0 12.31,5.52 12.31,12.32"
         style="fill:#320072;fill-opacity:1;fill-rule:nonzero;stroke:none"
         id="path110" /><path
         d="m 5994.28,2187.89 c 0,6.79 -5.5,12.31 -12.31,12.31 -6.8,0 -12.32,-5.52 -12.32,-12.31 0,-6.8 5.52,-12.32 12.32,-12.32 6.81,0 12.31,5.52 12.31,12.32"
         style="fill:#320072;fill-opacity:1;fill-rule:nonzero;stroke:none"
         id="path112" /><path
         d="m 6557.04,939.91 c 0,6.789 -5.52,12.301 -12.32,12.301 -6.8,0 -12.31,-5.512 -12.31,-12.301 0,-6.808 5.51,-12.32 12.31,-12.32 6.8,0 12.32,5.512 12.32,12.32"
         style="fill:#320072;fill-opacity:1;fill-rule:nonzero;stroke:none"
         id="path114" /><path
         d="m 6759.49,939.91 c 0,6.789 -5.51,12.301 -12.31,12.301 -6.8,0 -12.31,-5.512 -12.31,-12.301 0,-6.808 5.51,-12.32 12.31,-12.32 6.8,0 12.31,5.512 12.31,12.32"
         style="fill:#320072;fill-opacity:1;fill-rule:nonzero;stroke:none"
         id="path116" /><path
         d="m 6961.95,939.91 c 0,6.789 -5.51,12.301 -12.31,12.301 -6.8,0 -12.31,-5.512 -12.31,-12.301 0,-6.808 5.51,-12.32 12.31,-12.32 6.8,0 12.31,5.512 12.31,12.32"
         style="fill:#320072;fill-opacity:1;fill-rule:nonzero;stroke:none"
         id="path118" /><path
         d="m 7164.41,939.91 c 0,6.789 -5.51,12.301 -12.31,12.301 -6.8,0 -12.32,-5.512 -12.32,-12.301 0,-6.808 5.52,-12.32 12.32,-12.32 6.8,0 12.31,5.512 12.31,12.32"
         style="fill:#eaeaea;fill-opacity:1;fill-rule:nonzero;stroke:none"
         id="path120" /><path
         d="m 7366.87,939.91 c 0,6.789 -5.52,12.301 -12.31,12.301 -6.8,0 -12.32,-5.512 -12.32,-12.301 0,-6.808 5.52,-12.32 12.32,-12.32 6.79,0 12.31,5.512 12.31,12.32"
         style="fill:#320072;fill-opacity:1;fill-rule:nonzero;stroke:none"
         id="path122" /><path
         d="m 6557.04,753.141 c 0,6.808 -5.52,12.308 -12.32,12.308 -6.8,0 -12.31,-5.5 -12.31,-12.308 0,-6.801 5.51,-12.309 12.31,-12.309 6.8,0 12.32,5.508 12.32,12.309"
         style="fill:#320072;fill-opacity:1;fill-rule:nonzero;stroke:none"
         id="path124" /><path
         d="m 6759.49,753.141 c 0,6.808 -5.51,12.308 -12.31,12.308 -6.8,0 -12.31,-5.5 -12.31,-12.308 0,-6.801 5.51,-12.309 12.31,-12.309 6.8,0 12.31,5.508 12.31,12.309"
         style="fill:#320072;fill-opacity:1;fill-rule:nonzero;stroke:none"
         id="path126" /><path
         d="m 6961.95,753.141 c 0,6.808 -5.51,12.308 -12.31,12.308 -6.8,0 -12.31,-5.5 -12.31,-12.308 0,-6.801 5.51,-12.309 12.31,-12.309 6.8,0 12.31,5.508 12.31,12.309"
         style="fill:#320072;fill-opacity:1;fill-rule:nonzero;stroke:none"
         id="path128" /><path
         d="m 7164.41,753.141 c 0,6.808 -5.51,12.308 -12.31,12.308 -6.8,0 -12.32,-5.5 -12.32,-12.308 0,-6.801 5.52,-12.309 12.32,-12.309 6.8,0 12.31,5.508 12.31,12.309"
         style="fill:#320072;fill-opacity:1;fill-rule:nonzero;stroke:none"
         id="path130" /><path
         d="m 7366.87,753.141 c 0,6.808 -5.52,12.308 -12.31,12.308 -6.8,0 -12.32,-5.5 -12.32,-12.308 0,-6.801 5.52,-12.309 12.32,-12.309 6.79,0 12.31,5.508 12.31,12.309"
         style="fill:#320072;fill-opacity:1;fill-rule:nonzero;stroke:none"
         id="path132" /><path
         d="m 6557.04,566.379 c 0,6.801 -5.52,12.32 -12.32,12.32 -6.8,0 -12.31,-5.519 -12.31,-12.32 0,-6.789 5.51,-12.309 12.31,-12.309 6.8,0 12.32,5.52 12.32,12.309"
         style="fill:#320072;fill-opacity:1;fill-rule:nonzero;stroke:none"
         id="path134" /><path
         d="m 6759.49,566.379 c 0,6.801 -5.51,12.32 -12.31,12.32 -6.8,0 -12.31,-5.519 -12.31,-12.32 0,-6.789 5.51,-12.309 12.31,-12.309 6.8,0 12.31,5.52 12.31,12.309"
         style="fill:#320072;fill-opacity:1;fill-rule:nonzero;stroke:none"
         id="path136" /><path
         d="m 6961.95,566.379 c 0,6.801 -5.51,12.32 -12.31,12.32 -6.8,0 -12.31,-5.519 -12.31,-12.32 0,-6.789 5.51,-12.309 12.31,-12.309 6.8,0 12.31,5.52 12.31,12.309"
         style="fill:#320072;fill-opacity:1;fill-rule:nonzero;stroke:none"
         id="path138" /><path
         d="m 7164.41,566.379 c 0,6.801 -5.51,12.32 -12.31,12.32 -6.8,0 -12.32,-5.519 -12.32,-12.32 0,-6.789 5.52,-12.309 12.32,-12.309 6.8,0 12.31,5.52 12.31,12.309"
         style="fill:#320072;fill-opacity:1;fill-rule:nonzero;stroke:none"
         id="path140" /><path
         d="m 7366.87,566.379 c 0,6.801 -5.52,12.32 -12.31,12.32 -6.8,0 -12.32,-5.519 -12.32,-12.32 0,-6.789 5.52,-12.309 12.32,-12.309 6.79,0 12.31,5.52 12.31,12.309"
         style="fill:#320072;fill-opacity:1;fill-rule:nonzero;stroke:none"
         id="path142" /><path
         d="m 6557.04,379.621 c 0,6.801 -5.52,12.309 -12.32,12.309 -6.8,0 -12.31,-5.508 -12.31,-12.309 0,-6.801 5.51,-12.312 12.31,-12.312 6.8,0 12.32,5.511 12.32,12.312"
         style="fill:#eaeaea;fill-opacity:1;fill-rule:nonzero;stroke:none"
         id="path144" /><path
         d="m 6759.49,379.621 c 0,6.801 -5.51,12.309 -12.31,12.309 -6.8,0 -12.31,-5.508 -12.31,-12.309 0,-6.801 5.51,-12.312 12.31,-12.312 6.8,0 12.31,5.511 12.31,12.312"
         style="fill:#eaeaea;fill-opacity:1;fill-rule:nonzero;stroke:none"
         id="path146" /><path
         d="m 6961.95,379.621 c 0,6.801 -5.51,12.309 -12.31,12.309 -6.8,0 -12.31,-5.508 -12.31,-12.309 0,-6.801 5.51,-12.312 12.31,-12.312 6.8,0 12.31,5.511 12.31,12.312"
         style="fill:#320072;fill-opacity:1;fill-rule:nonzero;stroke:none"
         id="path148" /><path
         d="m 7164.41,379.621 c 0,6.801 -5.51,12.309 -12.31,12.309 -6.8,0 -12.32,-5.508 -12.32,-12.309 0,-6.801 5.52,-12.312 12.32,-12.312 6.8,0 12.31,5.511 12.31,12.312"
         style="fill:#320072;fill-opacity:1;fill-rule:nonzero;stroke:none"
         id="path150" /><path
         d="m 7366.87,379.621 c 0,6.801 -5.52,12.309 -12.31,12.309 -6.8,0 -12.32,-5.508 -12.32,-12.309 0,-6.801 5.52,-12.312 12.32,-12.312 6.79,0 12.31,5.511 12.31,12.312"
         style="fill:#320072;fill-opacity:1;fill-rule:nonzero;stroke:none"
         id="path152" /><path
         d="m 6557.04,192.859 c 0,6.789 -5.52,12.313 -12.32,12.313 -6.8,0 -12.31,-5.524 -12.31,-12.313 0,-6.8 5.51,-12.32 12.31,-12.32 6.8,0 12.32,5.52 12.32,12.32"
         style="fill:#eaeaea;fill-opacity:1;fill-rule:nonzero;stroke:none"
         id="path154" /><path
         d="m 6759.49,192.859 c 0,6.789 -5.51,12.313 -12.31,12.313 -6.8,0 -12.31,-5.524 -12.31,-12.313 0,-6.8 5.51,-12.32 12.31,-12.32 6.8,0 12.31,5.52 12.31,12.32"
         style="fill:#eaeaea;fill-opacity:1;fill-rule:nonzero;stroke:none"
         id="path156" /><path
         d="m 6961.95,192.859 c 0,6.789 -5.51,12.313 -12.31,12.313 -6.8,0 -12.31,-5.524 -12.31,-12.313 0,-6.8 5.51,-12.32 12.31,-12.32 6.8,0 12.31,5.52 12.31,12.32"
         style="fill:#eaeaea;fill-opacity:1;fill-rule:nonzero;stroke:none"
         id="path158" /><path
         d="m 7164.41,192.859 c 0,6.789 -5.51,12.313 -12.31,12.313 -6.8,0 -12.32,-5.524 -12.32,-12.313 0,-6.8 5.52,-12.32 12.32,-12.32 6.8,0 12.31,5.52 12.31,12.32"
         style="fill:#320072;fill-opacity:1;fill-rule:nonzero;stroke:none"
         id="path160" /><path
         d="m 7366.87,192.859 c 0,6.789 -5.52,12.313 -12.31,12.313 -6.8,0 -12.32,-5.524 -12.32,-12.313 0,-6.8 5.52,-12.32 12.32,-12.32 6.79,0 12.31,5.52 12.31,12.32"
         style="fill:#320072;fill-opacity:1;fill-rule:nonzero;stroke:none"
         id="path162" /><path
         d="m 5254.83,428.539 c 57.2,0 57.2,-73.219 114.39,-73.219 57.2,0 57.2,73.219 114.4,73.219 57.18,0 57.18,-73.219 114.35,-73.219 57.2,0 57.2,73.219 114.39,73.219 57.22,0 57.22,-73.219 114.43,-73.219 57.2,0 57.2,73.219 114.4,73.219 57.23,0 57.23,-73.219 114.46,-73.219 57.24,0 57.24,73.219 114.47,73.219"
         style="fill:none;stroke:#320072;stroke-width:10;stroke-linecap:butt;stroke-linejoin:miter;stroke-miterlimit:10;stroke-dasharray:none;stroke-opacity:1"
         id="path164" /><path
         d="m 1100.11,2261.84 c 0,131.51 -106.602,238.11 -238.102,238.11 -131.5,0 -238.106,-106.6 -238.106,-238.11 0,-131.49 106.606,-238.09 238.106,-238.09 131.5,0 238.102,106.6 238.102,238.09"
         style="fill:#6800df;fill-opacity:1;fill-rule:nonzero;stroke:none"
         id="path166" /><path
         d="M 1827.19,-0.0507813 C 1827.19,271.262 1607.26,491.199 1335.95,491.199 1064.64,491.199 844.699,271.262 844.699,-0.0507813 844.699,-271.359 1064.64,-491.289 1335.95,-491.289 c 271.31,0 491.24,219.93 491.24,491.2382187"
         style="fill:#edb000;fill-opacity:1;fill-rule:nonzero;stroke:none"
         id="path168" /><path
         d="m 1866.6,4108.63 c 0,271.31 -219.94,491.25 -491.24,491.25 -271.31,0 -491.251,-219.94 -491.251,-491.25 0,-271.31 219.941,-491.24 491.251,-491.24 271.3,0 491.24,219.93 491.24,491.24"
         style="fill:#6800df;fill-opacity:1;fill-rule:nonzero;stroke:none"
         id="path170" /><path
         d="m 1753.21,3995.25 c 0,271.31 -219.93,491.25 -491.24,491.25 -271.31,0 -491.247,-219.94 -491.247,-491.25 0,-271.31 219.937,-491.25 491.247,-491.25 271.31,0 491.24,219.94 491.24,491.25"
         style="fill:#9f55ff;fill-opacity:1;fill-rule:nonzero;stroke:none"
         id="path172" /><path
         d="m 1224.08,2821.54 c 0,404.2 -327.662,731.87 -731.861,731.87 -404.1995,0 -731.867,-327.67 -731.867,-731.87 0,-404.19 327.6675,-731.86 731.867,-731.86 404.199,0 731.861,327.67 731.861,731.86 z"
         style="fill:none;stroke:#320072;stroke-width:20;stroke-linecap:round;stroke-linejoin:round;stroke-miterlimit:4;stroke-dasharray:0, 69.6763;stroke-dashoffset:0;stroke-opacity:1"
         id="path174" /><path
         d="m 1105.06,2821.54 c 0,338.47 -274.376,612.85 -612.841,612.85 -338.469,0 -612.848,-274.38 -612.848,-612.85 0,-338.46 274.379,-612.84 612.848,-612.84 338.465,0 612.841,274.38 612.841,612.84 z"
         style="fill:none;stroke:#320072;stroke-width:20;stroke-linecap:round;stroke-linejoin:round;stroke-miterlimit:4;stroke-dasharray:0, 70.0015;stroke-dashoffset:0;stroke-opacity:1"
         id="path176" /><path
         d="m 986.047,2821.54 c 0,272.74 -221.094,493.83 -493.828,493.83 -272.735,0 -493.82447,-221.09 -493.82447,-493.83 0,-272.73 221.08947,-493.82 493.82447,-493.82 272.734,0 493.828,221.09 493.828,493.82 z"
         style="fill:none;stroke:#320072;stroke-width:20;stroke-linecap:round;stroke-linejoin:round;stroke-miterlimit:4;stroke-dasharray:0, 70.4997;stroke-dashoffset:0;stroke-opacity:1"
         id="path178" /><path
         d="m 867.023,2821.54 c 0,207.01 -167.804,374.81 -374.804,374.81 -206.996,0 -374.805,-167.8 -374.805,-374.81 0,-206.99 167.809,-374.8 374.805,-374.8 207,0 374.804,167.81 374.804,374.8 z"
         style="fill:none;stroke:#320072;stroke-width:20;stroke-linecap:round;stroke-linejoin:round;stroke-miterlimit:4;stroke-dasharray:0, 69.2458;stroke-dashoffset:0;stroke-opacity:1"
         id="path180" /><path
         d="m 748.004,2821.54 c 0,141.27 -114.52,255.79 -255.785,255.79 -141.266,0 -255.785,-114.52 -255.785,-255.79 0,-141.26 114.519,-255.78 255.785,-255.78 141.265,0 255.785,114.52 255.785,255.78 z"
         style="fill:none;stroke:#320072;stroke-width:20;stroke-linecap:round;stroke-linejoin:round;stroke-miterlimit:4;stroke-dasharray:0, 69.8577;stroke-dashoffset:0;stroke-opacity:1"
         id="path182" /><path
         d="m 801.941,999.398 c 0,386.522 -313.339,699.862 -699.859,699.862 -386.523,0 -699.863,-313.34 -699.863,-699.862 0,-386.507 313.34,-699.847 699.863,-699.847 386.52,0 699.859,313.34 699.859,699.847 z"
         style="fill:none;stroke:#edb000;stroke-width:200;stroke-linecap:butt;stroke-linejoin:miter;stroke-miterlimit:10;stroke-dasharray:none;stroke-opacity:1"
         id="path184" /><path
         d="m 2491.67,2843.57 c 0,277.3 -224.79,502.1 -502.09,502.1 -277.3,0 -502.09,-224.8 -502.09,-502.1 0,-277.29 224.79,-502.09 502.09,-502.09 277.3,0 502.09,224.8 502.09,502.09 z"
         style="fill:none;stroke:#6800df;stroke-width:200;stroke-linecap:butt;stroke-linejoin:miter;stroke-miterlimit:10;stroke-dasharray:none;stroke-opacity:1"
         id="path186" /><path
         d="m 1261.97,1105.94 v 1018.22 l 830.65,-509.11 z"
         style="fill:#9f55ff;fill-opacity:1;fill-rule:nonzero;stroke:none"
         id="path188" /><path
         d="M 1497.84,1085.13 V 2103.36 L 2328.5,1594.24 Z"
         style="fill:none;stroke:#320072;stroke-width:10;stroke-linecap:butt;stroke-linejoin:miter;stroke-miterlimit:10;stroke-dasharray:none;stroke-opacity:1"
         id="path190" /><path
         d="M 597.512,4490.84 V 5509.06 L 1428.17,4999.95 Z"
         style="fill:#edb000;fill-opacity:1;fill-rule:nonzero;stroke:none"
         id="path192" /><path
         d="m 578.152,1686.95 c 0,6.8 -5.515,12.31 -12.312,12.31 -6.801,0 -12.313,-5.51 -12.313,-12.31 0,-6.8 5.512,-12.32 12.313,-12.32 6.797,0 12.312,5.52 12.312,12.32"
         style="fill:#320072;fill-opacity:1;fill-rule:nonzero;stroke:none"
         id="path194" /><path
         d="m 780.613,1686.95 c 0,6.8 -5.515,12.31 -12.316,12.31 -6.797,0 -12.309,-5.51 -12.309,-12.31 0,-6.8 5.512,-12.32 12.309,-12.32 6.801,0 12.316,5.52 12.316,12.32"
         style="fill:#320072;fill-opacity:1;fill-rule:nonzero;stroke:none"
         id="path196" /><path
         d="m 983.066,1686.95 c 0,6.8 -5.511,12.31 -12.308,12.31 -6.801,0 -12.313,-5.51 -12.313,-12.31 0,-6.8 5.512,-12.32 12.313,-12.32 6.797,0 12.308,5.52 12.308,12.32"
         style="fill:#320072;fill-opacity:1;fill-rule:nonzero;stroke:none"
         id="path198" /><path
         d="m 1185.53,1686.95 c 0,6.8 -5.51,12.31 -12.32,12.31 -6.79,0 -12.31,-5.51 -12.31,-12.31 0,-6.8 5.52,-12.32 12.31,-12.32 6.81,0 12.32,5.52 12.32,12.32"
         style="fill:#320072;fill-opacity:1;fill-rule:nonzero;stroke:none"
         id="path200" /><path
         d="m 1387.99,1686.95 c 0,6.8 -5.51,12.31 -12.31,12.31 -6.81,0 -12.32,-5.51 -12.32,-12.31 0,-6.8 5.51,-12.32 12.32,-12.32 6.8,0 12.31,5.52 12.31,12.32"
         style="fill:#eaeaea;fill-opacity:1;fill-rule:nonzero;stroke:none"
         id="path202" /><path
         d="m 578.152,1500.19 c 0,6.8 -5.515,12.32 -12.312,12.32 -6.801,0 -12.313,-5.52 -12.313,-12.32 0,-6.81 5.512,-12.31 12.313,-12.31 6.797,0 12.312,5.5 12.312,12.31"
         style="fill:#eaeaea;fill-opacity:1;fill-rule:nonzero;stroke:none"
         id="path204" /><path
         d="m 780.613,1500.19 c 0,6.8 -5.515,12.32 -12.316,12.32 -6.797,0 -12.309,-5.52 -12.309,-12.32 0,-6.81 5.512,-12.31 12.309,-12.31 6.801,0 12.316,5.5 12.316,12.31"
         style="fill:#320072;fill-opacity:1;fill-rule:nonzero;stroke:none"
         id="path206" /><path
         d="m 983.066,1500.19 c 0,6.8 -5.511,12.32 -12.308,12.32 -6.801,0 -12.313,-5.52 -12.313,-12.32 0,-6.81 5.512,-12.31 12.313,-12.31 6.797,0 12.308,5.5 12.308,12.31"
         style="fill:#320072;fill-opacity:1;fill-rule:nonzero;stroke:none"
         id="path208" /><path
         d="m 1185.53,1500.19 c 0,6.8 -5.51,12.32 -12.32,12.32 -6.79,0 -12.31,-5.52 -12.31,-12.32 0,-6.81 5.52,-12.31 12.31,-12.31 6.81,0 12.32,5.5 12.32,12.31"
         style="fill:#320072;fill-opacity:1;fill-rule:nonzero;stroke:none"
         id="path210" /><path
         d="m 1387.99,1500.19 c 0,6.8 -5.51,12.32 -12.31,12.32 -6.81,0 -12.32,-5.52 -12.32,-12.32 0,-6.81 5.51,-12.31 12.32,-12.31 6.8,0 12.31,5.5 12.31,12.31"
         style="fill:#eaeaea;fill-opacity:1;fill-rule:nonzero;stroke:none"
         id="path212" /><path
         d="m 578.152,1313.42 c 0,6.81 -5.515,12.32 -12.312,12.32 -6.801,0 -12.313,-5.51 -12.313,-12.32 0,-6.79 5.512,-12.3 12.313,-12.3 6.797,0 12.312,5.51 12.312,12.3"
         style="fill:#320072;fill-opacity:1;fill-rule:nonzero;stroke:none"
         id="path214" /><path
         d="m 780.613,1313.42 c 0,6.81 -5.515,12.32 -12.316,12.32 -6.797,0 -12.309,-5.51 -12.309,-12.32 0,-6.79 5.512,-12.3 12.309,-12.3 6.801,0 12.316,5.51 12.316,12.3"
         style="fill:#eaeaea;fill-opacity:1;fill-rule:nonzero;stroke:none"
         id="path216" /><path
         d="m 983.066,1313.42 c 0,6.81 -5.511,12.32 -12.308,12.32 -6.801,0 -12.313,-5.51 -12.313,-12.32 0,-6.79 5.512,-12.3 12.313,-12.3 6.797,0 12.308,5.51 12.308,12.3"
         style="fill:#320072;fill-opacity:1;fill-rule:nonzero;stroke:none"
         id="path218" /><path
         d="m 1185.53,1313.42 c 0,6.81 -5.51,12.32 -12.32,12.32 -6.79,0 -12.31,-5.51 -12.31,-12.32 0,-6.79 5.52,-12.3 12.31,-12.3 6.81,0 12.32,5.51 12.32,12.3"
         style="fill:#320072;fill-opacity:1;fill-rule:nonzero;stroke:none"
         id="path220" /><path
         d="m 1387.99,1313.42 c 0,6.81 -5.51,12.32 -12.31,12.32 -6.81,0 -12.32,-5.51 -12.32,-12.32 0,-6.79 5.51,-12.3 12.32,-12.3 6.8,0 12.31,5.51 12.31,12.3"
         style="fill:#eaeaea;fill-opacity:1;fill-rule:nonzero;stroke:none"
         id="path222" /><path
         d="m 578.152,1126.67 c 0,6.79 -5.515,12.31 -12.312,12.31 -6.801,0 -12.313,-5.52 -12.313,-12.31 0,-6.8 5.512,-12.32 12.313,-12.32 6.797,0 12.312,5.52 12.312,12.32"
         style="fill:#320072;fill-opacity:1;fill-rule:nonzero;stroke:none"
         id="path224" /><path
         d="m 780.613,1126.67 c 0,6.79 -5.515,12.31 -12.316,12.31 -6.797,0 -12.309,-5.52 -12.309,-12.31 0,-6.8 5.512,-12.32 12.309,-12.32 6.801,0 12.316,5.52 12.316,12.32"
         style="fill:#eaeaea;fill-opacity:1;fill-rule:nonzero;stroke:none"
         id="path226" /><path
         d="m 983.066,1126.67 c 0,6.79 -5.511,12.31 -12.308,12.31 -6.801,0 -12.313,-5.52 -12.313,-12.31 0,-6.8 5.512,-12.32 12.313,-12.32 6.797,0 12.308,5.52 12.308,12.32"
         style="fill:#320072;fill-opacity:1;fill-rule:nonzero;stroke:none"
         id="path228" /><path
         d="m 1185.53,1126.67 c 0,6.79 -5.51,12.31 -12.32,12.31 -6.79,0 -12.31,-5.52 -12.31,-12.31 0,-6.8 5.52,-12.32 12.31,-12.32 6.81,0 12.32,5.52 12.32,12.32"
         style="fill:#320072;fill-opacity:1;fill-rule:nonzero;stroke:none"
         id="path230" /><path
         d="m 1387.99,1126.67 c 0,6.79 -5.51,12.31 -12.31,12.31 -6.81,0 -12.32,-5.52 -12.32,-12.31 0,-6.8 5.51,-12.32 12.32,-12.32 6.8,0 12.31,5.52 12.31,12.32"
         style="fill:#320072;fill-opacity:1;fill-rule:nonzero;stroke:none"
         id="path232" /><path
         d="m 578.152,939.91 c 0,6.789 -5.515,12.301 -12.312,12.301 -6.801,0 -12.313,-5.512 -12.313,-12.301 0,-6.808 5.512,-12.32 12.313,-12.32 6.797,0 12.312,5.512 12.312,12.32"
         style="fill:#320072;fill-opacity:1;fill-rule:nonzero;stroke:none"
         id="path234" /><path
         d="m 780.613,939.91 c 0,6.789 -5.515,12.301 -12.316,12.301 -6.797,0 -12.309,-5.512 -12.309,-12.301 0,-6.808 5.512,-12.32 12.309,-12.32 6.801,0 12.316,5.512 12.316,12.32"
         style="fill:#eaeaea;fill-opacity:1;fill-rule:nonzero;stroke:none"
         id="path236" /><path
         d="m 983.066,939.91 c 0,6.789 -5.511,12.301 -12.308,12.301 -6.801,0 -12.313,-5.512 -12.313,-12.301 0,-6.808 5.512,-12.32 12.313,-12.32 6.797,0 12.308,5.512 12.308,12.32"
         style="fill:#320072;fill-opacity:1;fill-rule:nonzero;stroke:none"
         id="path238" /><path
         d="m 1185.53,939.91 c 0,6.789 -5.51,12.301 -12.32,12.301 -6.79,0 -12.31,-5.512 -12.31,-12.301 0,-6.808 5.52,-12.32 12.31,-12.32 6.81,0 12.32,5.512 12.32,12.32"
         style="fill:#320072;fill-opacity:1;fill-rule:nonzero;stroke:none"
         id="path240" /><path
         d="m 1387.99,939.91 c 0,6.789 -5.51,12.301 -12.31,12.301 -6.81,0 -12.32,-5.512 -12.32,-12.301 0,-6.808 5.51,-12.32 12.32,-12.32 6.8,0 12.31,5.512 12.31,12.32"
         style="fill:#320072;fill-opacity:1;fill-rule:nonzero;stroke:none"
         id="path242" /><path
         d="m -67.793,4897.54 v 37.58 l 477.52,-222.67 v -37.58 l -477.52,222.67"
         style="fill:#320072;fill-opacity:1;fill-rule:nonzero;stroke:none"
         id="path244" /><path
         d="m -67.793,4775.41 v 37.57 l 477.52,-222.67 v -37.58 l -477.52,222.68"
         style="fill:#320072;fill-opacity:1;fill-rule:nonzero;stroke:none"
         id="path246" /><path
         d="m -67.793,4653.27 v 37.58 l 477.52,-222.67 v -37.58 l -477.52,222.67"
         style="fill:#320072;fill-opacity:1;fill-rule:nonzero;stroke:none"
         id="path248" /><path
         d="m -67.793,4531.13 v 37.58 l 477.52,-222.66 v -37.58 l -477.52,222.66"
         style="fill:#320072;fill-opacity:1;fill-rule:nonzero;stroke:none"
         id="path250" /><path
         d="m -67.793,4409 v 37.58 l 477.52,-222.67 v -37.57 L -67.793,4409"
         style="fill:#320072;fill-opacity:1;fill-rule:nonzero;stroke:none"
         id="path252" /><path
         d="m -67.793,4286.87 v 37.58 l 477.52,-222.67 v -37.58 l -477.52,222.67"
         style="fill:#320072;fill-opacity:1;fill-rule:nonzero;stroke:none"
         id="path254" /><path
         d="m -67.793,4164.73 v 37.58 l 477.52,-222.67 v -37.58 l -477.52,222.67"
         style="fill:#320072;fill-opacity:1;fill-rule:nonzero;stroke:none"
         id="path256" /><path
         d="m -67.793,4042.6 v 37.58 l 477.52,-222.67 v -37.58 l -477.52,222.67"
         style="fill:#320072;fill-opacity:1;fill-rule:nonzero;stroke:none"
         id="path258" /><path
         d="m 2497.06,-232.051 c 281.72,281.7112 281.72,738.461 0.01,1020.172 -281.72,281.709 -738.46,281.709 -1020.17,0 L 2497.06,-232.051"
         style="fill:#6800df;fill-opacity:1;fill-rule:nonzero;stroke:none"
         id="path260" /><path
         d="m 1609.29,4569.49 c 0,6.81 -5.51,12.32 -12.32,12.32 -6.79,0 -12.31,-5.51 -12.31,-12.32 0,-6.79 5.52,-12.31 12.31,-12.31 6.81,0 12.32,5.52 12.32,12.31"
         style="fill:#320072;fill-opacity:1;fill-rule:nonzero;stroke:none"
         id="path262" /><path
         d="m 1811.74,4569.49 c 0,6.81 -5.51,12.32 -12.31,12.32 -6.8,0 -12.31,-5.51 -12.31,-12.32 0,-6.79 5.51,-12.31 12.31,-12.31 6.8,0 12.31,5.52 12.31,12.31"
         style="fill:#320072;fill-opacity:1;fill-rule:nonzero;stroke:none"
         id="path264" /><path
         d="m 2014.21,4569.49 c 0,6.81 -5.52,12.32 -12.32,12.32 -6.8,0 -12.31,-5.51 -12.31,-12.32 0,-6.79 5.51,-12.31 12.31,-12.31 6.8,0 12.32,5.52 12.32,12.31"
         style="fill:#320072;fill-opacity:1;fill-rule:nonzero;stroke:none"
         id="path266" /><path
         d="m 2216.67,4569.49 c 0,6.81 -5.52,12.32 -12.32,12.32 -6.8,0 -12.31,-5.51 -12.31,-12.32 0,-6.79 5.51,-12.31 12.31,-12.31 6.8,0 12.32,5.52 12.32,12.31"
         style="fill:#320072;fill-opacity:1;fill-rule:nonzero;stroke:none"
         id="path268" /><path
         d="m 2419.12,4569.49 c 0,6.81 -5.51,12.32 -12.31,12.32 -6.8,0 -12.31,-5.51 -12.31,-12.32 0,-6.79 5.51,-12.31 12.31,-12.31 6.8,0 12.31,5.52 12.31,12.31"
         style="fill:#320072;fill-opacity:1;fill-rule:nonzero;stroke:none"
         id="path270" /><path
         d="m 1609.29,4382.73 c 0,6.8 -5.51,12.32 -12.32,12.32 -6.79,0 -12.31,-5.52 -12.31,-12.32 0,-6.8 5.52,-12.31 12.31,-12.31 6.81,0 12.32,5.51 12.32,12.31"
         style="fill:#eaeaea;fill-opacity:1;fill-rule:nonzero;stroke:none"
         id="path272" /><path
         d="m 1811.74,4382.73 c 0,6.8 -5.51,12.32 -12.31,12.32 -6.8,0 -12.31,-5.52 -12.31,-12.32 0,-6.8 5.51,-12.31 12.31,-12.31 6.8,0 12.31,5.51 12.31,12.31"
         style="fill:#320072;fill-opacity:1;fill-rule:nonzero;stroke:none"
         id="path274" /><path
         d="m 2014.21,4382.73 c 0,6.8 -5.52,12.32 -12.32,12.32 -6.8,0 -12.31,-5.52 -12.31,-12.32 0,-6.8 5.51,-12.31 12.31,-12.31 6.8,0 12.32,5.51 12.32,12.31"
         style="fill:#320072;fill-opacity:1;fill-rule:nonzero;stroke:none"
         id="path276" /><path
         d="m 2216.67,4382.73 c 0,6.8 -5.52,12.32 -12.32,12.32 -6.8,0 -12.31,-5.52 -12.31,-12.32 0,-6.8 5.51,-12.31 12.31,-12.31 6.8,0 12.32,5.51 12.32,12.31"
         style="fill:#320072;fill-opacity:1;fill-rule:nonzero;stroke:none"
         id="path278" /><path
         d="m 2419.12,4382.73 c 0,6.8 -5.51,12.32 -12.31,12.32 -6.8,0 -12.31,-5.52 -12.31,-12.32 0,-6.8 5.51,-12.31 12.31,-12.31 6.8,0 12.31,5.51 12.31,12.31"
         style="fill:#320072;fill-opacity:1;fill-rule:nonzero;stroke:none"
         id="path280" /><path
         d="m 1609.29,4195.97 c 0,6.8 -5.51,12.31 -12.32,12.31 -6.79,0 -12.31,-5.51 -12.31,-12.31 0,-6.8 5.52,-12.31 12.31,-12.31 6.81,0 12.32,5.51 12.32,12.31"
         style="fill:#eaeaea;fill-opacity:1;fill-rule:nonzero;stroke:none"
         id="path282" /><path
         d="m 1811.74,4195.97 c 0,6.8 -5.51,12.31 -12.31,12.31 -6.8,0 -12.31,-5.51 -12.31,-12.31 0,-6.8 5.51,-12.31 12.31,-12.31 6.8,0 12.31,5.51 12.31,12.31"
         style="fill:#eaeaea;fill-opacity:1;fill-rule:nonzero;stroke:none"
         id="path284" /><path
         d="m 2014.21,4195.97 c 0,6.8 -5.52,12.31 -12.32,12.31 -6.8,0 -12.31,-5.51 -12.31,-12.31 0,-6.8 5.51,-12.31 12.31,-12.31 6.8,0 12.32,5.51 12.32,12.31"
         style="fill:#320072;fill-opacity:1;fill-rule:nonzero;stroke:none"
         id="path286" /><path
         d="m 2216.67,4195.97 c 0,6.8 -5.52,12.31 -12.32,12.31 -6.8,0 -12.31,-5.51 -12.31,-12.31 0,-6.8 5.51,-12.31 12.31,-12.31 6.8,0 12.32,5.51 12.32,12.31"
         style="fill:#320072;fill-opacity:1;fill-rule:nonzero;stroke:none"
         id="path288" /><path
         d="m 2419.12,4195.97 c 0,6.8 -5.51,12.31 -12.31,12.31 -6.8,0 -12.31,-5.51 -12.31,-12.31 0,-6.8 5.51,-12.31 12.31,-12.31 6.8,0 12.31,5.51 12.31,12.31"
         style="fill:#320072;fill-opacity:1;fill-rule:nonzero;stroke:none"
         id="path290" /><path
         d="m 1609.29,4009.21 c 0,6.8 -5.51,12.31 -12.32,12.31 -6.79,0 -12.31,-5.51 -12.31,-12.31 0,-6.8 5.52,-12.31 12.31,-12.31 6.81,0 12.32,5.51 12.32,12.31"
         style="fill:#eaeaea;fill-opacity:1;fill-rule:nonzero;stroke:none"
         id="path292" /><path
         d="m 1811.74,4009.21 c 0,6.8 -5.51,12.31 -12.31,12.31 -6.8,0 -12.31,-5.51 -12.31,-12.31 0,-6.8 5.51,-12.31 12.31,-12.31 6.8,0 12.31,5.51 12.31,12.31"
         style="fill:#eaeaea;fill-opacity:1;fill-rule:nonzero;stroke:none"
         id="path294" /><path
         d="m 2014.21,4009.21 c 0,6.8 -5.52,12.31 -12.32,12.31 -6.8,0 -12.31,-5.51 -12.31,-12.31 0,-6.8 5.51,-12.31 12.31,-12.31 6.8,0 12.32,5.51 12.32,12.31"
         style="fill:#320072;fill-opacity:1;fill-rule:nonzero;stroke:none"
         id="path296" /><path
         d="m 2216.67,4009.21 c 0,6.8 -5.52,12.31 -12.32,12.31 -6.8,0 -12.31,-5.51 -12.31,-12.31 0,-6.8 5.51,-12.31 12.31,-12.31 6.8,0 12.32,5.51 12.32,12.31"
         style="fill:#320072;fill-opacity:1;fill-rule:nonzero;stroke:none"
         id="path298" /><path
         d="m 2419.12,4009.21 c 0,6.8 -5.51,12.31 -12.31,12.31 -6.8,0 -12.31,-5.51 -12.31,-12.31 0,-6.8 5.51,-12.31 12.31,-12.31 6.8,0 12.31,5.51 12.31,12.31"
         style="fill:#320072;fill-opacity:1;fill-rule:nonzero;stroke:none"
         id="path300" /><path
         d="m 1609.29,3822.45 c 0,6.8 -5.51,12.31 -12.32,12.31 -6.79,0 -12.31,-5.51 -12.31,-12.31 0,-6.8 5.52,-12.31 12.31,-12.31 6.81,0 12.32,5.51 12.32,12.31"
         style="fill:#eaeaea;fill-opacity:1;fill-rule:nonzero;stroke:none"
         id="path302" /><path
         d="m 1811.74,3822.45 c 0,6.8 -5.51,12.31 -12.31,12.31 -6.8,0 -12.31,-5.51 -12.31,-12.31 0,-6.8 5.51,-12.31 12.31,-12.31 6.8,0 12.31,5.51 12.31,12.31"
         style="fill:#320072;fill-opacity:1;fill-rule:nonzero;stroke:none"
         id="path304" /><path
         d="m 2014.21,3822.45 c 0,6.8 -5.52,12.31 -12.32,12.31 -6.8,0 -12.31,-5.51 -12.31,-12.31 0,-6.8 5.51,-12.31 12.31,-12.31 6.8,0 12.32,5.51 12.32,12.31"
         style="fill:#320072;fill-opacity:1;fill-rule:nonzero;stroke:none"
         id="path306" /><path
         d="m 2216.67,3822.45 c 0,6.8 -5.52,12.31 -12.32,12.31 -6.8,0 -12.31,-5.51 -12.31,-12.31 0,-6.8 5.51,-12.31 12.31,-12.31 6.8,0 12.32,5.51 12.32,12.31"
         style="fill:#320072;fill-opacity:1;fill-rule:nonzero;stroke:none"
         id="path308" /><path
         d="m 2419.12,3822.45 c 0,6.8 -5.51,12.31 -12.31,12.31 -6.8,0 -12.31,-5.51 -12.31,-12.31 0,-6.8 5.51,-12.31 12.31,-12.31 6.8,0 12.31,5.51 12.31,12.31"
         style="fill:#320072;fill-opacity:1;fill-rule:nonzero;stroke:none"
         id="path310" /><path
         d="m 344.289,576.469 c 57.195,0 57.195,-73.219 114.395,-73.219 57.195,0 57.195,73.219 114.394,73.219 57.176,0 57.176,-73.219 114.36,-73.219 57.191,0 57.191,73.219 114.39,73.219 57.211,0 57.211,-73.219 114.43,-73.219 57.191,0 57.191,73.219 114.392,73.219 57.23,0 57.23,-73.219 114.47,-73.219 57.23,0 57.23,73.219 114.47,73.219"
         style="fill:none;stroke:#320072;stroke-width:10;stroke-linecap:butt;stroke-linejoin:miter;stroke-miterlimit:10;stroke-dasharray:none;stroke-opacity:1"
         id="path312" /><path
         d="m 1148.92,3343.65 c 0,57.2 73.22,57.2 73.22,114.39 0,57.2 -73.22,57.2 -73.22,114.4 0,57.17 73.22,57.17 73.22,114.35 0,57.2 -73.22,57.2 -73.22,114.39 0,57.22 73.22,57.22 73.22,114.43 0,57.2 -73.22,57.2 -73.22,114.39 0,57.24 73.22,57.24 73.22,114.47 0,57.24 -73.22,57.24 -73.22,114.48"
         style="fill:none;stroke:#320072;stroke-width:10;stroke-linecap:butt;stroke-linejoin:miter;stroke-miterlimit:10;stroke-dasharray:none;stroke-opacity:1"
         id="path314" /></g></g></svg>
